<svg width="91" height="108" viewBox="0 0 91 108" fill="none" xmlns="http://www.w3.org/2000/svg">
<path d="M20.0858 88.7446C19.7638 87.0341 18.5832 85.6699 17.1461 84.6126C15.1174 83.1198 12.7562 82.0652 10.3191 81.2965C9.96045 83.8465 8.82959 85.982 6.92127 87.6978C4.95274 89.4687 2.64914 90.3528 0 90.3528V91.1975H19.5963C20.0204 90.4289 20.2481 89.6051 20.0858 88.7446Z" fill="#3E2C77"/>
<path d="M16.133 19.0596C18.7821 19.0596 21.0255 18.1152 22.8736 16.2236C24.7191 14.3347 25.6432 12.1021 25.6432 9.52849C25.6432 6.95485 24.7191 4.6252 22.8736 2.77302C21.0255 0.926086 18.7795 -3.8147e-06 16.133 -3.8147e-06C13.4865 -3.8147e-06 11.3373 0.926086 9.45256 2.77564C7.56518 4.62782 6.6228 6.87615 6.6228 9.53111C6.6228 12.1861 7.56518 14.3373 9.45256 16.2262C11.3373 18.1178 13.565 19.0622 16.133 19.0622V19.0596Z" fill="#3E2C77"/>
<path d="M10.4736 45.2367V45.5988C10.5102 45.9031 10.5469 46.21 10.5835 46.5222C11.6699 47.0863 12.9735 47.228 14.1934 46.7925C16.2928 46.0421 17.7875 43.9538 18.8713 42.1095C20.2011 39.8481 20.989 37.4056 21.7638 34.9133C22.6068 32.1954 23.5884 29.5142 25.4548 27.3157C25.7847 26.9248 26.1381 26.5444 26.5019 26.1745L0.00268555 35.1048V35.9496C2.65182 35.9496 4.95542 36.8363 6.92395 38.6046C8.88987 40.3754 10.0731 42.5844 10.4736 45.2394V45.2367Z" fill="#3E2C77"/>
<path d="M31.8393 87.7004C29.8708 85.9322 28.7294 83.7206 28.4074 81.0656L28.287 79.8588C27.8054 76.4798 27.4022 72.681 27.0829 68.4598C26.7609 64.2386 26.6012 59.7735 26.6012 55.0695C26.6012 50.3656 26.7216 45.5201 26.9625 40.5328C27.1693 36.2775 27.52 32.0196 28.0174 27.7643C27.1509 28.6537 26.3551 29.5798 25.7374 30.6869C24.3343 33.2028 23.761 36.0703 22.7977 38.762C21.8972 41.2753 20.659 43.6915 18.9627 45.7588C17.3109 47.7684 15.0047 49.3687 12.3058 49.2323C11.8006 49.2061 11.3006 49.1169 10.8189 48.9726C10.9577 50.6359 11.065 52.4067 11.1331 54.2904C11.2535 57.5068 11.3137 60.7048 11.3137 63.8818C11.3137 67.0589 11.2325 70.0942 11.0729 72.9906C10.9394 75.3674 10.7823 77.419 10.5964 79.1453C11.5336 79.4391 12.4603 79.7696 13.366 80.1422C17.2559 81.7346 22.0464 84.4499 22.2977 89.1932C22.3343 89.9042 22.2191 90.5758 21.994 91.208H38.7579V90.3633C36.1088 90.3633 33.8026 89.4792 31.8367 87.7083L31.8393 87.7004Z" fill="#3E2C77"/>
<path d="M60.4223 96.0562V105.06C61.3281 105.147 62.2417 105.039 63.0924 104.68C64.5662 104.06 65.7311 102.835 66.5871 101.513C68.3802 98.7453 68.8959 95.6391 69.2781 92.4306C69.642 89.3611 70.0765 86.087 72.1995 83.6786C73.3251 82.401 74.8696 81.572 76.4847 81.0945C77.6575 80.7482 78.9113 80.5488 80.1338 80.6538C80.1705 78.8278 80.2202 76.9651 80.283 75.0657C80.3616 72.5734 80.4035 70.1205 80.4035 67.7069C80.4035 64.6505 79.8197 61.5968 78.6574 58.5378C77.4925 55.4814 75.668 52.7294 73.1811 50.2738C70.6917 47.8209 67.464 45.8323 63.4903 44.3028C59.5192 42.7759 54.7209 42.0098 49.1059 42.0098C46.8573 42.0098 44.3102 42.3115 41.4622 42.9149C38.6141 43.5183 35.944 44.4654 33.4571 45.7509C30.9677 47.0391 28.863 48.7076 27.138 50.7565C25.4103 52.8081 24.549 55.3214 24.549 58.2964C24.549 60.55 25.3108 62.4389 26.8369 63.9658C28.3604 65.4953 30.2478 66.2587 32.4938 66.2587C34.7398 66.2587 36.6665 65.7156 38.0303 64.6295C39.3942 63.5434 40.4779 62.1556 41.2815 60.4687C42.0826 58.7792 42.7056 56.9899 43.148 55.101C43.5878 53.2121 44.1296 51.4229 44.7736 49.7334C45.4149 48.0439 46.2578 46.656 47.3023 45.5725C48.3442 44.4864 49.7891 43.9433 51.6346 43.9433C55.0063 43.9433 57.6528 45.7352 59.5794 49.311C61.5061 52.8894 62.4275 58.5798 62.349 66.382C61.1448 66.5447 59.2601 66.6653 56.6921 66.744C54.1241 66.8254 51.2943 67.0274 48.2054 67.3474C45.1165 67.6701 41.9046 68.1922 38.5748 68.9163C35.2451 69.6404 32.2347 70.8078 29.5463 72.4134C26.8579 74.0242 24.6302 76.1125 22.8658 78.6861C21.68 80.415 20.8947 82.4535 20.5046 84.7989C21.5229 86.0267 22.2088 87.4722 22.2978 89.1853C22.3815 90.7568 21.714 92.1236 20.7847 93.3409C20.9575 94.0703 21.1695 94.7943 21.4208 95.5132C22.2219 97.8061 23.4862 99.855 25.2113 101.665C26.9364 103.475 29.1431 104.942 31.8315 106.067C34.5199 107.193 37.7895 107.757 41.6428 107.757C46.2159 107.757 50.1478 106.671 53.4383 104.499C56.7287 102.326 59.0533 99.514 60.4197 96.0536L60.4223 96.0562ZM50.4305 103.174C46.6583 103.174 43.8495 101.605 42.004 98.4698C40.1559 95.3322 39.2345 91.3943 39.2345 86.6484C39.2345 83.2694 39.6559 80.4963 40.4988 78.3241C41.3417 76.1519 42.4438 74.4046 43.8103 73.0771C45.1741 71.7497 46.7002 70.7658 48.3834 70.1205C50.0692 69.4777 51.7734 69.0553 53.4985 68.8533C55.2235 68.6539 56.8492 68.5333 58.3727 68.4913C59.8962 68.4519 61.2207 68.3916 62.3438 68.3103C62.3438 68.5516 62.3228 69.2154 62.2836 70.3015C62.2417 71.3876 62.1815 72.6338 62.1029 74.04C62.0218 75.4488 61.9406 76.8759 61.8621 78.3215C61.7809 79.7697 61.6998 80.9764 61.6213 81.9393C61.459 83.7101 61.1789 85.7984 60.7784 88.212C60.3752 90.6256 59.7548 92.9369 58.9119 95.1485C58.069 97.3601 56.9643 99.249 55.6005 100.818C54.234 102.387 52.5116 103.171 50.4252 103.171L50.4305 103.174Z" fill="#3E2C77"/>
<path d="M84.0761 102.45C82.1076 100.681 80.9663 98.4698 80.6469 95.8149L80.4061 94.6081C80.2438 92.9999 80.1443 91.1503 80.1051 89.0594C80.0658 87.1102 80.0632 85.0376 80.0972 82.8417C79.8145 82.8024 79.5187 82.7867 79.2124 82.7945C76.1628 82.8863 73.4613 84.6415 72.443 87.4958C71.3985 90.4157 71.5058 93.5692 70.8776 96.5757C70.2258 99.6871 68.8043 102.94 66.396 105.084C66.0452 105.396 65.6709 105.687 65.2756 105.947H91V105.102C88.3509 105.102 86.0447 104.218 84.0788 102.447L84.0761 102.45Z" fill="#3E2C77"/>
</svg>
