<?xml version="1.0" encoding="UTF-8"?>
<svg id="Layer_2" data-name="Layer 2" xmlns="http://www.w3.org/2000/svg" xmlns:xlink="http://www.w3.org/1999/xlink" viewBox="0 0 792 1398.42">
  <defs>
    <style>
      .cls-1 {
        letter-spacing: -.01em;
      }

      .cls-2 {
        letter-spacing: -.01em;
      }

      .cls-3 {
        letter-spacing: -.02em;
      }

      .cls-4 {
        font-size: 36px;
      }

      .cls-4, .cls-5, .cls-6, .cls-7, .cls-8, .cls-9 {
        fill: #f37d53;
      }

      .cls-4, .cls-10, .cls-8, .cls-11, .cls-12, .cls-13, .cls-14, .cls-15 {
        font-family: TheSeasons-Bold, 'The Seasons';
        font-weight: 700;
      }

      .cls-16 {
        clip-path: url(#clippath);
      }

      .cls-5, .cls-6, .cls-17, .cls-18, .cls-19, .cls-20 {
        font-family: LetterMagicRegular, 'Letter Magic';
      }

      .cls-5, .cls-8, .cls-11, .cls-12 {
        font-size: 18px;
      }

      .cls-21 {
        letter-spacing: -.02em;
      }

      .cls-22 {
        letter-spacing: -.08em;
      }

      .cls-23, .cls-24 {
        fill: none;
      }

      .cls-23, .cls-25, .cls-26, .cls-27, .cls-9, .cls-28, .cls-29, .cls-30 {
        stroke-width: 0px;
      }

      .cls-31 {
        letter-spacing: 0em;
      }

      .cls-32 {
        letter-spacing: -.02em;
      }

      .cls-33 {
        letter-spacing: 0em;
      }

      .cls-34 {
        letter-spacing: -.03em;
      }

      .cls-6 {
        font-size: 39px;
      }

      .cls-35 {
        letter-spacing: 0em;
      }

      .cls-36 {
        letter-spacing: .06em;
      }

      .cls-37 {
        fill: url(#Floral);
        stroke: url(#Floral);
      }

      .cls-37, .cls-24 {
        stroke-miterlimit: 10;
      }

      .cls-38 {
        letter-spacing: .08em;
      }

      .cls-39 {
        letter-spacing: -.05em;
      }

      .cls-40 {
        letter-spacing: .07em;
      }

      .cls-41 {
        letter-spacing: .26em;
      }

      .cls-42 {
        letter-spacing: .26em;
      }

      .cls-43 {
        letter-spacing: -.02em;
      }

      .cls-44 {
        letter-spacing: -.02em;
      }

      .cls-45 {
        letter-spacing: -.04em;
      }

      .cls-46 {
        clip-path: url(#clippath-1);
      }

      .cls-47 {
        clip-path: url(#clippath-2);
      }

      .cls-48 {
        letter-spacing: 0em;
      }

      .cls-49 {
        letter-spacing: 0em;
      }

      .cls-50 {
        letter-spacing: -.02em;
      }

      .cls-10, .cls-14, .cls-15 {
        font-size: 24px;
      }

      .cls-17 {
        letter-spacing: .3em;
      }

      .cls-17, .cls-18 {
        font-size: 55px;
      }

      .cls-17, .cls-18, .cls-20, .cls-12, .cls-30 {
        fill: #f5b167;
      }

      .cls-51 {
        font-size: 19px;
      }

      .cls-52 {
        letter-spacing: .06em;
      }

      .cls-53 {
        letter-spacing: .3em;
      }

      .cls-54 {
        letter-spacing: .3em;
      }

      .cls-55 {
        letter-spacing: 0em;
      }

      .cls-24 {
        stroke: #b54041;
      }

      .cls-56 {
        letter-spacing: 0em;
      }

      .cls-57 {
        letter-spacing: -.05em;
      }

      .cls-58 {
        letter-spacing: 0em;
      }

      .cls-59 {
        letter-spacing: 0em;
      }

      .cls-19, .cls-20 {
        font-size: 86.02px;
      }

      .cls-19, .cls-26, .cls-14 {
        fill: #b54041;
      }

      .cls-60 {
        letter-spacing: -.06em;
      }

      .cls-61 {
        letter-spacing: -.02em;
      }

      .cls-62 {
        letter-spacing: 0em;
      }

      .cls-11, .cls-27 {
        fill: #83153d;
      }

      .cls-63 {
        font-size: 14px;
      }

      .cls-13, .cls-25 {
        fill: #520e26;
      }

      .cls-28 {
        fill: #fffbfa;
      }

      .cls-29, .cls-15 {
        fill: #fce1d8;
      }

      .cls-64 {
        letter-spacing: -.02em;
      }
    </style>
    <clipPath id="clippath">
      <rect class="cls-23" x="34.78" y="1138.1" width="240.07" height="239.87"/>
    </clipPath>
    <clipPath id="clippath-1">
      <path class="cls-9" d="m-27.33,1149.43c4.13,7.88,11.28,16.11,20.09,14.84,1.84-.26,3.64-.95,5.49-.78,3.99.35,6.5,4.31,8.4,7.83,12.52,23.19,25.48,46.15,38.86,68.85,2.43,4.12,6.79,8.87,11.08,6.75,3.11-1.54,3.62-5.67,3.72-9.14.56-19.49,1.12-38.98,1.68-58.48.2-7.12,1.39-15.74,7.95-18.51,5.17-2.18,11.32.8,14.72,5.27,3.4,4.46,4.77,10.09,6.41,15.46,7.16,23.44,21.01,44.31,39.32,60.53,18.3,16.21,36.25,35.51,59.95,43.7,16.71,5.77,36.27,2.39,50.08-8.64,20.16-16.11,18.75-37.55,19.47-60.68.18-5.69.59-11.36.84-17.05.73-16.56-1.91-35.64,9-49.69,4.58-5.9,10.42-9.33,18.16-8.78v-21.42c-4.83,1.52-9.74,2.91-13.94,5.88-8.9,6.29-16.23,13.83-19.45,24.61-1.34,4.48-2.27,9.03-2.67,13.72-.71,8.3-.94,16.65-2.4,24.88-1.56,8.84-3.35,17.65-7.1,25.87-2.77,6.06-6.75,11.34-11.77,15.64-4.66,3.99-8.18,9.09-12.85,13.03-6.53,5.51-13.44,10.46-21.03,14.42-7.9,4.12-15.59,3.51-22.86-1.52-2.69-1.86-5.12-4.09-7.63-6.2-3.65-3.06-7.24-6.21-10.92-9.24-4.47-3.69-9.15-7.14-13.46-11-3.99-3.57-8.25-6.74-12.53-9.92-5.33-3.97-10.36-8.17-14.31-13.68-3.43-4.79-5.8-9.98-7.69-15.48-1.46-4.25-2.83-8.55-4.68-12.63-2.98-6.56-6.11-13.03-8.36-19.9-1.43-4.37-3.58-8.39-6.81-11.81-3.78-4-8.19-5.64-13.47-3.84-8.12,2.77-12.8,9.02-16.14,16.52-1.5,3.36-2.01,6.95-2.68,10.52-1.55,8.26-1.95,16.53-.79,24.87.53,3.81-.04,7.43-1.98,10.86-1.28,2.27-2.52,4.62-3.35,7.09-.73,2.19-.86,4.59-1.27,6.89-.23,1.27-.31,2.62-1.58,3.49-2.03-.39-3.25-1.89-4.36-3.35-2.04-2.68-4.03-5.42-5.79-8.29-3.12-5.1-6.09-10.29-9.07-15.47-2.65-4.63-5.42-9.21-7.79-13.98-4.16-8.41-6.77-17.4-9.52-26.33-2.18-7.07-6.06-13.03-11.96-17.61-2.98-2.31-6.19-2.99-9.76-1.66-.53.2-1.04.42-1.57.61-1.68.6-3.39.72-4.83-.45-1.8-1.47-3.53-3.03-5.16-4.68-5.53-5.62-8.83-12.12-8.24-20.3.54-7.47.64-14.97,1.3-22.43.16-1.8-1.26-3.72.33-5.41.41-3.69,1.26-7.3,1.34-11.06.1-5.37-.87-10.62-1.39-15.91-.2-2.01-.91-4-1.63-5.91-.9-2.38-2.83-3.67-5.33-4.04-1.11-.16-2.29,0-3.36-.28-1.13-.3-2.33-.77-3.18-1.53-1.16-1.03-2.53-2.26-2.92-3.65-1.04-3.76-3.62-6.45-5.75-9.45-2.54-3.58-5.45-6.96-7.12-11.06-1.97-4.82-3.82-9.67-5.03-14.73-.9.29-1.82.53-2.75.74.01.12.02.24.03.36-.21.03-.42.05-.63.08l-.03-.3c-.82.16-1.65.29-2.49.39-1.04.84-2.06,1.69-3.11,2.51.02.54.04,1.08.05,1.63.24,8.67,1.58,17.12,4.13,25.4,1.24,4.03,2.02,8.18,2.04,12.41.02,5.59-.13,11.17-.19,16.76-.03,2.7.05,5.39-.03,8.09-.09,2.96.62,5.87.27,8.85-.29,2.5-.22,5.03-.4,7.55-.11,1.58-.31,3.15-.6,4.71-1.04,5.65-1.43,11.34-.97,17.05.69,8.4,2.3,16.66,4.54,24.79.47-.03.93-.05,1.76-.1-.35.6-.47,1.1-.69,1.14-1.46.32-1.45,1.24-1.06,2.34.19.53.42,1.04.66,1.54,3.72,7.83,6.49,15.93,7.57,24.58.51,4.09,1.12,8.17,1.87,12.22,1.16,6.35,2.48,12.67,3.73,19,.46,2.37.97,4.74,1.33,7.12.9,6.02,1.48,12.1,2.66,18.06,1.43,7.2,2.37,14.37,1.7,21.73-.29,3.23.05,6.52-.02,9.77-.07,2.99.15,6.09-.57,8.94-1.31,5.24-.85,10.2.89,15.17.15.44.39.86.47,1.31.43,2.37.86,4.73,1.21,7.11.41,2.75-1.01,5.08-1.89,7.53-.76,2.11-1.87,4.13-2.35,6.29-1.13,5.04-2.86,9.86-4.63,14.68-4.56,12.42-8.33,27.25-6.25,40.58,2.02,12.88,13.64,27.28,26.43,16.12,1.41-1.23,2.67-2.65,4.12-3.83,1.97-1.6,3.85-1.6,5.94-.18,1.16.79,2.26,1.69,3.45,2.43,3.4,2.13,6.95,2.76,10.64.75,1.48-.8,2.94-1.66,4.33-2.61,3.69-2.52,7.66-3.19,12.05-2.39,5.94,1.08,11.66,2.82,17.19,5.21,2.86,1.24,5.61,1.2,8.41-.17,1.77-.87,3.59-1.63,5.42-2.36,3.3-1.32,5.28-.53,6.99,2.56,1.88,3.4,1.79,7.03,1.35,10.68-1.34,10.98-7.4,21.18-7.5,32.27-.02,1.9.18,3.85,1,5.56,3.03,6.32,15.38,4.05,20.1,1.02.86-.55,1.83-.94,2.76-1.4,4.68-2.28,9.58-3.79,14.83-3.92,2.72-.06,3.14.55,2.25,3.2-.5,1.48-1.07,2.94-1.71,4.67,6.64,0,12.92-.01,19.21.01,1.11,0,1.66-.6,2.22-1.42,2.32-3.39,4.73-6.72,7.05-10.11,3.14-4.59,5.8-9.5,7.22-14.85,2.52-9.51,4.74-19.11,5.77-28.92.65-6.17-.1-12.1-3.04-17.71-2.32-4.44-7.67-4.95-10.81-1.44-2.04,2.29-3.77,4.87-5.54,7.4-2.11,3.01-4.23,5.93-7.76,7.51-5.37,2.42-9.41-.75-10.54-4.97-1.72-6.46-4.15-12.61-8.23-17.96-2.34-3.07-5.39-5.39-8.72-7.39-4.98-2.99-10.45-4.67-15.97-6.13-6.43-1.69-12.94-3.12-19.45-4.48-3.39-.71-6.88-.91-10.3-1.52-4.87-.87-7.7-3.67-8.46-8.75-.69-4.6-1.53-9.24-2.95-13.65-1.37-4.28-4-7.76-9.02-8.54-1.43-.22-3.08-.4-3.93-1.89-1.32-2.29-3.45-3.64-5.55-5.05-2.97-2-6.25-2.01-9.2-.06-3.44,2.27-5.84,5.49-8,8.89-1.91,3-3.61,6.14-5.43,9.2-.62,1.04-1.24,2.13-3,2.26-.31-.75-.85-1.53-.97-2.38-.57-3.95-1.37-7.91-1.43-11.87-.05-3.58-1.18-6.67-2.56-9.83-1.15-2.64-2.16-5.36-3.03-8.1-.66-2.08-.71-4.26-.03-6.39.35,1.62.25,3.36.8,4.86,1.36,3.74,2.95,7.4,4.56,11.05.56,1.27,1.33,2.46,2.15,3.59,1.28,1.76,2.74,2.36,4.59,1.41,1.6-.83,3.13-2.08,4.27-3.48,2.94-3.62,4.37-8.02,5.83-12.38.69-2.03,1.4-4.07,2.3-6.01.86-1.86,2.23-2.42,4.17-1.89.88.24,1.77.65,2.52,1.18,1.45,1.03,2.84,2.15,4.2,3.3,2.6,2.19,5.3,4.17,8.71,4.9,1.47.32,2.94.61,4.39.98,2.31.59,4.07,1.96,5.12,4.09,1.2,2.43,2.54,4.85,3.33,7.42,2.15,6.96,4.14,13.97,6.01,21.01,1.73,6.52,5.9,10.51,12.25,12.24,4.05,1.1,8.19,1.93,12.31,2.75,5.51,1.09,11.02,2.26,16.59,3.02,6.13.84,11.63,3.11,16.45,6.81,4.3,3.3,8.21,7.12,12.4,10.57,5,4.12,8.31,4.57,13.22.38,1.66-1.41,2.94-3.44,3.94-5.41,1.89-3.73,3.5-7.61,5.15-11.46,2.94-6.82,4.49-13.89,3.66-21.37-.07-.59.06-1.21.09-1.81,3.53,5.64,5.19,11.68,4.6,18.2-.28,3.07-.94,6.11-1.39,9.17-.95,6.52-.1,12.86,1.82,19.14,1.69,5.54,3.61,11.11,2.89,17.04-.71,5.85-1.68,11.66-2.58,17.48-.7,4.53-4.84,15.84,4.03,14.86,2.56-.28,4.78-1.81,7-3.12,13.53-7.96,27.44-6.87,41.92-2.61,6.38,1.88,11.08,5.56,13.72,11.86,2.47,5.89,4.93,11.75,6.31,18.01.47,2.13.66,2.27,2.8,2.3,3.85.05,7.7.06,11.55.06,13.71,0,27.42-.03,41.13-.04,9.01,0,18.02.01,27.03,0,1.8,0,3.6-.14,5.25-.21-.03-.54-.04-.81-.08-1.58,1.88,1.98,3.73,1.7,5.6,1.28v-45.65c-.62,2.53-1.18,5.08-1.88,7.59-.9,3.23-1.88,6.44-2.9,9.64-1.38,4.3-4.17,7.79-7.23,10.91-1.34,1.37-3.83,1.75-5.88,2.27-1.88.48-3.85.63-5.8.73-.62.03-1.72-.49-1.82-.93-.33-1.44-1.37-1.55-2.46-1.9-1.31-.42-2.57-1.02-3.82-1.61-1.69-.8-3.52-1.43-4.97-2.56-1.32-1.03-2.02-2.83-3.31-3.93-12.83-11-29.17-13.01-40.72-25.87-6.63-7.38-12.11-15.81-19.38-22.57-2.36-2.2-5.17-4.31-8.39-4.36-6.51-.1-9.09,6.87-13.26,10.55-4.64,4.09-10.51,5.76-16.62,5.7-2.49-.02-4.82-1.14-6.43-3.1-6.08-7.41-10.87-15.52-12.06-25.22-.55-4.45-.34-8.98-.54-13.47-.25-5.65-1.26-11.18-3.32-16.46-1.69-4.35-3.6-8.62-5.36-12.95-.37-.92-.54-1.93-.78-2.91.7.99,1.56,1.91,2.01,3,2.25,5.53,4.68,11.02,6.47,16.71,2,6.34,2.9,12.96,3.3,19.6.37,6.18,1.84,11.98,5.02,17.33,2.31,3.89,5.45,6.89,9.5,8.9,5.78,2.87,13.03.66,17.08-3.51,2.67-2.75,4.13-6.17,5.07-9.86.39-1.54.83-3.09,1.51-4.52.99-2.08,2.45-2.71,4.63-1.92,1.82.67,3.7,1.47,5.22,2.65,5.55,4.32,10.65,9.13,15.37,14.38,6.02,6.69,12.7,12.72,19.77,18.29,1.88,1.48,4.24,2.35,6.42,3.44,4.86,2.42,9.94,4.46,14.55,7.28,4.61,2.82,8.76,6.38,13.1,9.63.6.45,1.08,1.08,1.73,1.4,3.59,1.77,6.8,4.29,10.72,5.38,1.07.3,2.28.69,3.29.46,2.96-.68,5.86-1.65,8.77-2.54.43-.13.91-.43,1.13-.79.54-.9.71-2.22,1.46-2.73.88-.59,1.37-1.3,2.03-2.03,2.65-2.93,3.6-6.72,4.66-10.18.99-3.26,3.16-6.07,3.49-9.53.02-.19.39-.35.6-.52v-34.38c-.55,2.74-.98,5.51-1.66,8.21-1.43,5.63-4.09,10.64-8.22,14.76-1.44,1.44-3.1,2.74-4.83,3.82-3.38,2.11-6.83,2.63-10.6.56-7.79-4.29-15.72-8.32-23.55-12.55-3.29-1.78-6.5-3.71-9.66-5.71-1.25-.79-2.25-1.96-3.37-2.94-4.24-3.69-8.33-7.58-12.78-10.99-4.37-3.35-8.97-6.47-13.74-9.24-5.67-3.29-11.63-6.07-17.44-9.13-4.55-2.4-9.05-4.88-13.57-7.33-2.67-1.45-5.46-2.56-8.51-2.71-6.55-.32-11.45,3.57-13.24,10.29-.25.94-.66,1.85-1.21,3.33-1.04-1.13-1.9-1.75-2.32-2.59-2.3-4.63-5.31-8.78-8.21-13.02-3.48-5.07-6.5-10.43-9.22-15.96-2.76-5.62-5.85-11.08-8.68-16.67-2.83-5.58-5.54-11.22-8.26-16.86-3.29-6.82-6.42-13.72-9.84-20.47-1.69-3.33-3.92-6.37-5.84-9.59-2.78-4.66-5.49-9.37-8.23-14.05-.23-.4-.43-.84-.72-1.2-2.75-3.36-6.62-2.92-8.54.95-1.41,2.84-1.69,5.96-1.81,9.01-.17,4.37-.01,8.77.29,13.14.35,5.08,1.95,9.92,3.85,14.59,3.82,9.39,4.19,19.09,3.09,28.97-.23,2.03-.73,4.04-1.22,6.04-2.43,9.9-14.4,13.45-23.26,14.65-1.28.17-2.65.28-3.82-.27-1.93-.9-2.66-3.21-3.2-5.27-3.85-14.79-6.96-29.39-14.35-42.91-3.1-5.67-6.31-11.28-9.83-16.7-1.59-2.46-3.93-4.46-6.1-6.5-3.01-2.84-7-3.42-10.84-4.29-2.47-.56-5.01-.91-7.39-1.72-4.51-1.54-9.1-2.97-12.78-6.28-2.19-1.97-4.11-4.14-5.39-6.77-2.09-4.29-3.95-8.7-6.06-12.99-1.85-3.76-3.91-7.42-5.85-11.14-1.21-2.32-2.18-4.78-3.58-6.97-1.44-2.26-3.02-4.57-4.99-6.35-3.3-2.97-6.21-2.15-7.89,1.94-.49,1.19-.66,2.52-.97,3.79-.26,1.07-.5,2.15-1.25,3.25-.41-1.77-.84-3.54-1.24-5.32-1.67-7.49-3.46-14.94-7.98-21.38-.21-.3-.26-.72-.35-1.11.7.74,1.46,1.44,2.06,2.24,1.77,2.35,3.56,2.37,4.98-.18.89-1.6,1.49-3.35,2.37-5.37.67.77,1.2,1.25,1.57,1.83,4.48,7.02,8.93,14.06,13.39,21.1,4.22,6.66,7.86,13.61,11.13,20.78,2.05,4.51,4.24,9.01,6.83,13.22,4.55,7.4,11.36,10.3,19.95,8.93,1.97-.31,3.97-.64,5.76.5,1.42.9,2.77,1.95,4.01,3.09,5.62,5.19,10.19,11.26,14.08,17.79,5.45,9.15,10.41,18.59,14.27,28.54,1.32,3.39,1.99,7.02,3.08,10.51,1.22,3.92,2.31,7.91,3.93,11.67,2.73,6.35,8.71,7.31,14.69,4.56,8.33-3.83,12.53-10.51,13.44-19.57.57-5.66.43-11.24-.87-16.74-.97-4.08-2.55-8.01-3.6-12.08-2.07-7.96-2.57-16.06-1.52-24.22.84-6.51.35-26.77,9.37-16.27,7.04,8.19,11.44,21.73,16.5,31.32,10.99,20.84,21.87,41.75,32.97,62.53,1.8,3.41,4.02,7.16,7.77,8.06,2.64.63,5.35-.35,8.01-.86,10.46-2.01,20.8,3.24,30.17,8.32l64.36,34.9c8.19,4.44,17.66,9.01,26.45,5.9,11.93-4.22,15.02-19.55,14.75-32.18-.91-42.21-17.71-86.05-2.23-125.33,1.24-3.14,4.74-6.76,7.29-4.55,0-10.8-.01-21.59-.02-32.39-8.23-1.71-16.48,4.37-20.09,11.96s-3.66,16.31-3.65,24.71c.04,31.86.08,63.72.12,95.57,0,2.22-.02,4.55-1.08,6.5-1.74,3.21-5.66,4.44-9.24,5.19-35.72,7.56-73.93-3.58-103.13-25.47-29.2-21.89-49.94-53.68-63.11-87.7-2.89-7.47-13.05-22.4-21.17-10.4-2.67,3.95-2.82,9.03-2.87,13.8l-.71,63.29c-.03,2.79-.15,5.83-1.96,7.96-7.73,9.09-29.94-35.93-32.81-41.89-5.8-12.06-11.14-25.2-21.97-33.06-6.14-4.46-13.57-6.81-19.92-10.97-17.78-11.66-23.7-34.88-25.1-56.08-.31-4.77-.57-9.83-3.28-13.77-2.71-3.94-8.92-5.87-12.34-2.53-.35-29.04-4.68-58.02-12.82-85.9,7.42,15.39,11.26,32.48,11.16,49.55-.04,6.47.26,14.52,6.15,17.2,2.49,1.13,5.46.93,7.86,2.22,5.14,2.78,4.79,10.09,4.23,15.9-1.78,18.66,1.98,37.82,10.69,54.43Zm-4.7-68.56c.09.36.2.72.25,1.09.01.12-.17.26-.26.39-.24-.26-.48-.51-.72-.77.24-.24.49-.47.73-.71Zm-38.7-69.67c-.36-.11-.72-.22-1.07-.33.03-.13.06-.27.09-.4.38.06.77.11,1.15.17-.06.19-.11.37-.17.56Zm334.82,378.2c.41.1.83.2,1.24.31l-.13.47c-.41-.12-.82-.24-1.23-.36.04-.14.08-.28.11-.42Zm-306.34-128.08c-.14,0-.29-.01-.43-.02.04-.47.07-.95.11-1.42.11,0,.21,0,.32.01v1.43Zm158.8,15.6c1.19,2.19,2.42,4.37,3.51,6.61.4.83.54,1.78.77,2.7-2.57-2.99-3.98-6.58-5.1-10.38.28.36.6.68.82,1.07Zm-161.02-64.07c.26,1.13.46,2.28.78,3.39.62,2.15,1.22,4.31,2,6.4.43,1.14,1.25,2.1,2.64,2.28,1.49.19,2.77-.49,3.43-1.89,1.21-2.54,1.87-5.19,2.11-8.01.2-2.39.71-4.76,1.09-7.14.28-.06.56-.12.84-.18.79,1.12,1.67,2.2,2.35,3.38,2.75,4.75,6.67,8.21,11.39,10.96,7.94,4.63,15.75,9.46,23.66,14.14,2.57,1.52,5.2,2.96,7.88,4.28,5.02,2.48,9.52,5.64,13.21,9.85,3.71,4.23,6.68,8.92,8.84,14.17,1.88,4.57,3,9.27,3.25,14.14.18,3.54-.26,7.1-.28,10.65-.02,2.24.25,4.48.33,6.72.17,4.45,4.44,8.36,8.61,8.63,3.08.2,6.21.41,9.26.08,8.4-.91,16.77-2.04,25.14-3.24,3.03-.43,6.02-1.05,8.48-3.33,2.3-2.13,3.24-4.75,3.82-7.61.96-4.74.5-9.5-.1-14.22-.88-6.86-1.35-13.75-1.46-20.66-.08-4.84-1.16-9.42-2.83-13.94-1-2.71-1.56-5.59-2.27-8.4-.11-.42.03-.91.09-1.91.95.61,1.77.88,2.2,1.44,2.41,3.18,4.9,6.33,7.05,9.69,3.62,5.67,7.09,11.45,10.46,17.28,2.53,4.36,4.8,8.87,7.18,13.31.12.22.09.52-.22,1.05-.5-.67-1.08-1.3-1.49-2.03-2.43-4.33-4.69-8.75-7.27-12.98-1.18-1.92-2.4-4.07-5.1-4.48-2.17-.33-3.7.43-4.4,2.46-.91,2.64-.75,5.38-.52,8.07.37,4.19,1.09,8.35,1.52,12.54.72,6.97,1.49,13.94,1.87,20.93.11,1.98-.7,4.24-1.72,6-1.83,3.14-5.11,2.93-8.28,2.78-6.37-.3-12.75-.76-19.12-.67-4.77.07-9.52.94-14.29,1.35-4.89.42-9.75.44-14.4-1.58-3.72-1.61-5.49-4.44-5.38-8.39.13-4.68.49-9.36.67-14.04.28-7.15-1.49-13.84-5.52-19.7-4.09-5.95-8.96-11.32-15-15.41-3.72-2.51-7.71-4.62-11.51-7.03-3.48-2.21-6.76-4.74-10.28-6.86-4.57-2.75-9.19-5.47-14.01-7.72-1.9-.89-4.47-.9-6.62-.59-3.11.46-4.77,2.93-5.37,5.85-.67,3.3-.96,6.67-1.46,10-.32,2.17-.72,4.32-1.09,6.48-.2.02-.4.04-.6.06-.33-.61-.82-1.18-.98-1.83-.83-3.42-1.46-6.9-2.4-10.3-1.17-4.23-2.44-8.45-3.92-12.58-1.34-3.76-2.01-7.64-2.93-11.48.23-.06.46-.12.69-.18Zm-2.77-11.65c.16.17.36.32.46.52.04.08-.13.27-.21.41-.18-.15-.36-.3-.52-.45.12-.21.19-.35.27-.49Zm-6.45-38.19c.11.4.22.8.33,1.2-.11.05-.22.1-.33.15-.2-.37-.39-.73-.59-1.1.2-.08.39-.17.59-.25Zm-1.37-7.32c.19.89.39,1.79.58,2.68-.14.04-.27.07-.41.11-.28-.87-.55-1.75-.83-2.62.22-.06.44-.11.66-.17Zm-14.12-141.67c.13-.04.26-.08.4-.11.21.88.42,1.75.6,2.63,0,.02-.29.09-.57.19-.14-.92-.29-1.81-.43-2.7Zm.73,11.01c.14.32.28.65.42.97-.13.05-.27.11-.4.16l-.32-1.01c.1-.04.2-.08.29-.12Zm.71,9.14c-.23-.67-.47-1.33-.7-2l.31-.12c.26.67.51,1.35.77,2.02-.13.03-.25.06-.38.1Zm1.59-.25c-.02-.09.18-.24.27-.36.16.2.31.39.49.61-.18.16-.3.27-.42.37-.12-.21-.28-.41-.34-.63Zm.96,54.61c-.15,0-.31,0-.46,0v-9.62c.15.01.31.03.46.04v9.58Zm.37-35.09h-.11v-1.97s.07,0,.11,0v1.97Zm.35-13.99c-.23-.52-.47-1.05-.7-1.57.16-.06.32-.12.48-.18l.57,1.6c-.11.05-.23.1-.34.15Zm1.02,6.28c-.21-1.16-.43-2.33-.64-3.49.19-.04.37-.08.56-.11.13,1.18.26,2.36.39,3.54l-.31.06Zm.44,32.74c-.13.35-.25.7-.38,1.06-.15-.05-.31-.11-.46-.16.12-.34.22-.69.37-1.01.01-.03.3.07.47.11Zm-.64,2.8c1.36,2.65-.1,5.19-.11,7.8-.66-2.61-.22-5.21.11-7.8Zm-.15,30.48c.2-.02.39-.04.59-.06.06.81.13,1.62.19,2.43l-.54.06c-.08-.81-.16-1.61-.25-2.42Zm.27,4.92c.16-.02.32-.04.48-.06.24,2.06.47,4.12.71,6.18l-.48.06c-.24-2.06-.47-4.12-.71-6.18Zm.68-16.75c.3-1.38.6-2.76.89-4.14.28,1.45.47,2.89-.89,4.14Zm.08,34.21c.08-.03.17-.06.25-.09.11.32.21.64.32.95-.09.03-.18.06-.27.09-.1-.32-.2-.64-.3-.95Zm7.52,4.42c-.77,1.52-1.42,2.8-2.06,4.07-1.56.28-2.46-.92-3.67-1.52-1.6-.8-.95-2.08-1.27-3.23h2.32c-.9-4.26-1.76-8.36-2.62-12.45.23-.05.46-.1.68-.15.95,3.91,1.91,7.82,2.84,11.64,1.33.58,2.5,1.08,3.77,1.64Zm-5.07-54.2c-.44,2.83-.3,5.74-.58,8.6-.09.89.16,2.09-1.03,2.6.27-6.86.56-13.7.85-20.54.59,3.09,1.27,6.12.76,9.34Zm-.41-28.63c-.12,0-.24,0-.36,0v-7.38c.12,0,.24,0,.36,0v7.39Zm-.09-9.81l-4-15.38c2.53,4.87,4.12,9.98,4,15.38Zm-4.05-16.99c-.24.09-.48.18-.72.27l-1.45-4.18.62-.23,1.55,4.14Zm-2.11-6.71c-.2.03-.39.05-.59.08-.22-1.03-.44-2.06-.67-3.09.13-.03.26-.07.4-.1.29,1.04.57,2.07.86,3.11Z"/>
    </clipPath>
    <clipPath id="clippath-2">
      <rect class="cls-23" x="514.92" y="1137.9" width="240.07" height="240.07"/>
    </clipPath>
    <pattern id="Floral" x="0" y="0" width="216" height="165.6" patternTransform="translate(-771.18 458.1)" patternUnits="userSpaceOnUse" viewBox="0 0 216 165.6">
      <g>
        <rect class="cls-23" width="216" height="165.6"/>
        <path class="cls-25" d="m202.12,130.92c-8.39-10.95-24.14-16.38-35.27-6.22-7.69,7.02-10.71,19.66-2.22,27.33,5.45,4.91,11.54,4.04,17.83,1.84,5.22-1.82,12.86-3.73,15.13,3.11,1.44,4.32-.15,10.07-2.39,13.76-6.73,11.13-17.85,19.32-26.07,29.32-5.6,6.81-10.44,14.3-13.59,22.56-1.63,4.26-2.79,8.68-3.47,13.19-.78,5.2.16,10.94,1.53,15.97.85,3.12,5.09,15.34,8.88,15.3,1.31-.01,2.27-1.37,2.34-2.68.28-5.75-5.83-12.58-8.2-17.58.22-1.36.33-2.79.61-3.57.97-2.77,2.84-5.13,5.42-6.88,9.87-6.69,22.92-6.18,32.37-13.67,3.82-3.03,5.94-6.69,5.68-11.13-.31-5.43-4.53-10.26-10.87-8.71-4.38,1.07-8.46,5-7.33,9.28.73,2.75,3.07,3.56,5.8,3.94,2.26.32,5.4,1.05,4.56,3.9-.53,1.8-2.47,3.54-4.13,4.44-5.03,2.71-10.88,3.56-16.16,5.59-3.59,1.38-7.08,3.15-10.17,5.5-1.59,1.21-3.06,2.56-4.38,4.04-1.07,1.2-1.9,2.66-2.55,4.13-1.67-6.6-1.06-13.3,1.79-19.53,11.27-24.72,39.47-37.94,48.72-63.86,3.74-10.49,3-20.41-3.86-29.36Z"/>
        <path class="cls-25" d="m202.12-34.68c-8.39-10.95-24.14-16.38-35.27-6.22-7.69,7.02-10.71,19.66-2.22,27.33,5.45,4.91,11.54,4.04,17.83,1.84,5.22-1.82,12.86-3.73,15.13,3.11,1.44,4.32-.15,10.07-2.39,13.76-6.73,11.13-17.85,19.32-26.07,29.32-5.6,6.81-10.44,14.3-13.59,22.56-1.63,4.26-2.79,8.68-3.47,13.19-.78,5.2.16,10.94,1.53,15.97.85,3.12,5.09,15.34,8.88,15.3,1.31-.01,2.27-1.37,2.34-2.68.28-5.75-5.83-12.58-8.2-17.58.22-1.36.33-2.79.61-3.57.97-2.77,2.84-5.13,5.42-6.88,9.87-6.69,22.92-6.18,32.37-13.67,3.82-3.03,5.94-6.69,5.68-11.13-.31-5.43-4.53-10.26-10.87-8.71-4.38,1.07-8.46,5-7.33,9.28.73,2.75,3.07,3.56,5.8,3.94,2.26.32,5.4,1.05,4.56,3.9-.53,1.8-2.47,3.54-4.13,4.44-5.03,2.71-10.88,3.56-16.16,5.59-3.59,1.38-7.08,3.15-10.17,5.5-1.59,1.21-3.06,2.56-4.38,4.04-1.07,1.2-1.9,2.66-2.55,4.13-1.67-6.6-1.06-13.3,1.79-19.53,11.27-24.72,39.47-37.94,48.72-63.86,3.74-10.49,3-20.41-3.86-29.36Z"/>
        <path class="cls-25" d="m130.12,20.52c-8.39-10.95-24.14-16.38-35.27-6.22-7.69,7.02-10.71,19.66-2.22,27.33,5.45,4.91,11.54,4.04,17.83,1.84,5.22-1.82,12.86-3.73,15.13,3.11,1.44,4.32-.15,10.07-2.39,13.76-6.73,11.13-17.85,19.32-26.07,29.32-5.6,6.81-10.44,14.3-13.59,22.56-1.63,4.26-2.79,8.68-3.47,13.19-.78,5.2.16,10.94,1.53,15.97.85,3.12,5.09,15.34,8.88,15.3,1.31-.01,2.27-1.37,2.34-2.68.28-5.75-5.83-12.58-8.2-17.58.22-1.36.33-2.79.61-3.57.97-2.77,2.84-5.13,5.42-6.88,9.87-6.69,22.92-6.18,32.37-13.67,3.82-3.03,5.94-6.69,5.68-11.13-.31-5.43-4.53-10.26-10.87-8.71-4.38,1.07-8.46,5-7.33,9.28.73,2.75,3.07,3.56,5.8,3.94,2.26.32,5.4,1.05,4.56,3.9-.53,1.8-2.47,3.54-4.13,4.44-5.03,2.71-10.88,3.56-16.16,5.59-3.59,1.38-7.08,3.15-10.17,5.5-1.59,1.21-3.06,2.56-4.38,4.04-1.07,1.2-1.9,2.66-2.55,4.13-1.67-6.6-1.06-13.3,1.79-19.53,11.27-24.72,39.47-37.94,48.72-63.86,3.74-10.49,3-20.41-3.86-29.36Z"/>
        <path class="cls-25" d="m58.12,75.72c-8.39-10.95-24.14-16.38-35.27-6.22-7.69,7.02-10.71,19.66-2.22,27.33,5.45,4.91,11.54,4.04,17.83,1.84,5.22-1.82,12.86-3.73,15.13,3.11,1.44,4.32-.15,10.07-2.39,13.76-6.73,11.13-17.85,19.32-26.07,29.32-5.6,6.81-10.44,14.3-13.59,22.56-1.63,4.26-2.79,8.68-3.47,13.19-.78,5.2.16,10.94,1.53,15.97.85,3.12,5.09,15.34,8.88,15.3,1.31-.01,2.27-1.37,2.34-2.68.28-5.75-5.83-12.58-8.2-17.58.22-1.36.33-2.79.61-3.57.97-2.77,2.84-5.13,5.42-6.88,9.87-6.69,22.92-6.18,32.37-13.67,3.82-3.03,5.94-6.69,5.68-11.13-.31-5.43-4.53-10.26-10.87-8.71-4.38,1.07-8.46,5-7.33,9.28.73,2.75,3.07,3.56,5.8,3.94,2.26.32,5.4,1.05,4.56,3.9-.53,1.8-2.47,3.54-4.13,4.44-5.03,2.71-10.88,3.56-16.16,5.59-3.59,1.38-7.08,3.15-10.17,5.5-1.59,1.21-3.06,2.56-4.38,4.04-1.07,1.2-1.9,2.66-2.55,4.13-1.67-6.6-1.06-13.3,1.79-19.53,11.27-24.72,39.47-37.94,48.72-63.86,3.74-10.49,3-20.41-3.86-29.36Z"/>
        <path class="cls-25" d="m58.12-89.88c-8.39-10.95-24.14-16.38-35.27-6.22-7.69,7.02-10.71,19.66-2.22,27.33,5.45,4.91,11.54,4.04,17.83,1.84,5.22-1.82,12.86-3.73,15.13,3.11,1.44,4.32-.15,10.07-2.39,13.76-6.73,11.13-17.85,19.32-26.07,29.32C19.53-13.92,14.69-6.43,11.54,1.83c-1.63,4.26-2.79,8.68-3.47,13.19-.78,5.2.16,10.94,1.53,15.97.85,3.12,5.09,15.34,8.88,15.3,1.31-.01,2.27-1.37,2.34-2.68.28-5.75-5.83-12.58-8.2-17.58.22-1.36.33-2.79.61-3.57.97-2.77,2.84-5.13,5.42-6.88,9.87-6.69,22.92-6.18,32.37-13.67,3.82-3.03,5.94-6.69,5.68-11.13-.31-5.43-4.53-10.26-10.87-8.71-4.38,1.07-8.46,5-7.33,9.28.73,2.75,3.07,3.56,5.8,3.94,2.26.32,5.4,1.05,4.56,3.9-.53,1.8-2.47,3.54-4.13,4.44-5.03,2.71-10.88,3.56-16.16,5.59-3.59,1.38-7.08,3.15-10.17,5.5-1.59,1.21-3.06,2.56-4.38,4.04-1.07,1.2-1.9,2.66-2.55,4.13-1.67-6.6-1.06-13.3,1.79-19.53,11.27-24.72,39.47-37.94,48.72-63.86,3.74-10.49,3-20.41-3.86-29.36Z"/>
      </g>
    </pattern>
  </defs>
  <rect class="cls-28" x="-51.51" y="-20.98" width="969.3" height="1433.37"/>
  <rect class="cls-25" x="-22.37" y="737.42" width="836.74" height="327.91"/>
  <g>
    <g>
      <circle class="cls-27" cx="216.36" cy="596.23" r="48.06"/>
      <circle class="cls-29" cx="692.43" cy="596.23" r="48.06"/>
      <circle class="cls-9" cx="454.4" cy="596.23" r="48.06"/>
      <circle class="cls-26" cx="335.38" cy="596.23" r="48.06"/>
      <circle class="cls-30" cx="573.41" cy="596.23" r="48.06"/>
      <circle class="cls-25" cx="97.34" cy="596.23" r="48.06"/>
    </g>
    <text class="cls-13" transform="translate(179.62 679.93)"><tspan class="cls-51"><tspan x="0" y="0">M</tspan><tspan class="cls-21" x="15.87" y="0">ag</tspan><tspan x="35.32" y="0">enta</tspan></tspan><tspan class="cls-63"><tspan x="10.15" y="24">#83153D</tspan></tspan></text>
    <text class="cls-13" transform="translate(56.35 679.93)"><tspan class="cls-51"><tspan x="0" y="0">Deep </tspan><tspan class="cls-32" x="49.53" y="0">R</tspan><tspan class="cls-31" x="60.87" y="0">ed</tspan></tspan><tspan class="cls-63"><tspan x="12.12" y="24">#520E26</tspan></tspan></text>
    <text class="cls-13" transform="translate(319.15 679.93)"><tspan class="cls-51"><tspan class="cls-50" x="0" y="0">R</tspan><tspan class="cls-48" x="11.34" y="0">ed</tspan></tspan><tspan class="cls-63"><tspan x="-11.45" y="24">#B54041</tspan></tspan></text>
    <text class="cls-13" transform="translate(422.33 679.93)"><tspan class="cls-51"><tspan x="0" y="0">O</tspan><tspan class="cls-60" x="15.58" y="0">r</tspan><tspan x="22.95" y="0">an</tspan><tspan class="cls-3" x="44.21" y="0">g</tspan><tspan x="53.98" y="0">e</tspan></tspan><tspan class="cls-63"><tspan x="4.6" y="24">#F37D53</tspan></tspan></text>
    <text class="cls-13" transform="translate(546.94 679.93)"><tspan class="cls-51"><tspan class="cls-22" x="0" y="0">Y</tspan><tspan class="cls-1" x="9.18" y="0">e</tspan><tspan x="19.13" y="0">ll</tspan><tspan class="cls-43" x="28.48" y="0">o</tspan><tspan x="39.5" y="0">w</tspan></tspan><tspan class="cls-63"><tspan x=".23" y="24">#F5B167</tspan></tspan></text>
    <text class="cls-13" transform="translate(662.76 679.93)"><tspan class="cls-51"><tspan x="0" y="0">C</tspan><tspan class="cls-39" x="14.27" y="0">r</tspan><tspan class="cls-1" x="21.91" y="0">e</tspan><tspan x="31.86" y="0">am</tspan></tspan><tspan class="cls-63"><tspan x="-.38" y="24">#FCE1D8</tspan></tspan></text>
  </g>
  <g>
    <rect class="cls-30" x="265.18" y="208.92" width="265.96" height="256.98"/>
    <rect class="cls-26" x="-4.83" y="208.92" width="270.79" height="256.98"/>
    <rect class="cls-27" x="530.35" y="208.92" width="265.96" height="256.98"/>
  </g>
  <rect class="cls-29" x="-12.03" y="-7.96" width="836.74" height="229.09"/>
  <g>
    <g>
      <text class="cls-4" transform="translate(428.28 873.9)"><tspan x="0" y="0">The S</tspan><tspan class="cls-62" x="87.41" y="0">e</tspan><tspan class="cls-56" x="106.27" y="0">a</tspan><tspan x="125.68" y="0">sons B</tspan><tspan class="cls-2" x="230.87" y="0">o</tspan><tspan x="252.29" y="0">ld</tspan></text>
      <text class="cls-8" transform="translate(463.33 927.75)"><tspan x="0" y="0">Aa Bb Cc Dd Ee Ff Gg Hh Ii </tspan><tspan x="-3.94" y="21.6">Jj Kk Ll Mm Nn Oo Pp Qq Rr </tspan><tspan x="12.51" y="43.2">Ss Tt Uu </tspan><tspan class="cls-34" x="80.46" y="43.2">V</tspan><tspan x="91.58" y="43.2">v </tspan><tspan class="cls-34" x="103.79" y="43.2">W</tspan><tspan x="120.04" y="43.2">w Xx Yy Zz</tspan></text>
    </g>
    <g>
      <text class="cls-6" transform="translate(86.11 871.54)"><tspan class="cls-57" x="0" y="0">letter</tspan><tspan x="36.23" y="0" xml:space="preserve"> Mag</tspan><tspan class="cls-45" x="208.41" y="0">i</tspan><tspan x="223.35" y="0">c</tspan></text>
      <text class="cls-5" transform="translate(106.71 925.96)"><tspan x="0" y="0">Aa </tspan><tspan class="cls-64" x="32.56" y="0">B</tspan><tspan x="45.9" y="0">b </tspan><tspan class="cls-55" x="64.46" y="0">C</tspan><tspan x="76.23" y="0">c Dd Ee Ff Gg </tspan><tspan x="-4.16" y="21.6">Hh Ii Jj </tspan><tspan class="cls-49" x="77.62" y="21.6">K</tspan><tspan x="92.83" y="21.6">k Ll Mm Nn </tspan><tspan x="-2.4" y="43.2">Oo Pp Qq </tspan><tspan class="cls-33" x="92.8" y="43.2">R</tspan><tspan x="107.02" y="43.2">r Ss Tt Uu </tspan><tspan x="20.18" y="64.8">Vv Ww </tspan><tspan class="cls-35" x="96.25" y="64.8">X</tspan><tspan x="109.69" y="64.8">x Yy Zz</tspan></text>
    </g>
  </g>
  <text class="cls-10" transform="translate(293.65 513.32)"><tspan class="cls-40" x="0" y="0">CO</tspan><tspan class="cls-44" x="41.3" y="0">L</tspan><tspan class="cls-40" x="53.88" y="0">OR </tspan><tspan class="cls-61" x="98.59" y="0">P</tspan><tspan class="cls-38" x="111.65" y="0">ALETTE</tspan></text>
  <text class="cls-15" transform="translate(316.35 789.58)"><tspan class="cls-40" x="0" y="0">TY</tspan><tspan class="cls-36" x="30.55" y="0">P</tspan><tspan class="cls-40" x="45.34" y="0">OGRAPHY</tspan></text>
  <g>
    <g>
      <g>
        <text class="cls-20" transform="translate(249.89 140.46) scale(1.11 1.14)"><tspan class="cls-58" x="0" y="0">j</tspan><tspan x="34.92" y="0">ahira</tspan></text>
        <path class="cls-30" d="m516.92,133.84c-.58-.63,1.7-.52,2.41-.66,1.7-.35,1.4-4.09,1.42-5.29.09-3.55.41-6.79,2.12-9.95,1.5-2.76,3.3-5.35,5.36-7.72,3.99-4.61,8.89-8.31,14.13-11.4,7.68-4.54,16.82-7.21,23.8-12.83,2.32-1.87,4.7-5.21,4.79-8.35.14-4.97-5.26-5.54-9.07-5.59-4.59-.06-8.74-.93-11.11-5.4-3.69-6.97,1.25-14.44,7.89-17.17,9.6-3.95,18.53,3.28,21.37,12.35,2.33,7.42.47,14.02-4.43,19.93-12.1,14.61-33.49,16.51-46.62,29.86-7.07,7.19-6.04,14.82-5.53,20.69.51,5.87-2.17,3.97-2.17,3.97,0,0-4.37-2.43-4.37-2.43Z"/>
      </g>
      <g>
        <text class="cls-19" transform="translate(246.27 140.46) scale(1.11 1.14)"><tspan class="cls-58" x="0" y="0">j</tspan><tspan x="34.92" y="0">ahira</tspan></text>
        <path class="cls-26" d="m513.29,133.84c-.58-.63,1.7-.52,2.41-.66,1.7-.35,1.4-4.09,1.42-5.29.09-3.55.41-6.79,2.12-9.95,1.5-2.76,3.3-5.35,5.36-7.72,3.99-4.61,8.89-8.31,14.13-11.4,7.68-4.54,16.82-7.21,23.8-12.83,2.32-1.87,4.7-5.21,4.79-8.35.14-4.97-5.26-5.54-9.07-5.59-4.59-.06-8.74-.93-11.11-5.4-3.69-6.97,1.25-14.44,7.89-17.17,9.6-3.95,18.53,3.28,21.37,12.35,2.33,7.42.47,14.02-4.43,19.93-12.1,14.61-33.49,16.51-46.62,29.86-7.07,7.19-6.04,14.82-5.53,20.69.51,5.87-2.17,3.97-2.17,3.97,0,0-4.37-2.43-4.37-2.43Z"/>
      </g>
    </g>
    <text class="cls-14" transform="translate(324.67 175.93)"><tspan class="cls-53" x="0" y="0">SKIN</tspan><tspan class="cls-42" x="80.16" y="0">C</tspan><tspan class="cls-53" x="104.4" y="0">ARE</tspan></text>
  </g>
  <text class="cls-10" transform="translate(302.92 1107.33)"><tspan class="cls-40" x="0" y="0">BRAND </tspan><tspan class="cls-52" x="94.46" y="0">A</tspan><tspan class="cls-38" x="111.43" y="0">SSETS</tspan></text>
  <g>
    <path class="cls-29" d="m127.94,302.29c3.06,0,5.68-1.09,7.88-3.28,2.19-2.19,3.28-4.81,3.28-7.88s-1.09-5.68-3.28-7.88c-2.19-2.19-4.82-3.29-7.88-3.29s-5.69,1.1-7.88,3.29c-2.19,2.19-3.29,4.81-3.29,7.88s1.09,5.69,3.29,7.88c2.19,2.19,4.81,3.28,7.88,3.28Z"/>
    <path class="cls-29" d="m181.78,333.94c-3.38-10.75-13.95-19.32-25.34-14.64-7.87,3.24-13.73,12.1-9.35,20.36,2.81,5.3,7.73,6.33,13.17,6.4,4.52.06,10.92.74,10.75,6.62-.11,3.72-2.93,7.68-5.68,9.9-8.28,6.66-19.11,9.83-28.22,15.21-.67.4-1.33.8-1.99,1.22.97-1.99,1.56-4.19,1.72-6.61.24-2.88.38-10.89.41-24.03.03-13.14.13-21.15.32-24.03.72-9.24,3.81-14.58,9.27-16.02v-1.98c-7.02,1.56-13.23,2.34-18.63,2.34-5.22-.06-11.52-.84-18.9-2.34v1.98c5.4,1.44,8.46,6.78,9.18,16.02.24,3.36.36,10.97.36,22.81s-.12,19.42-.36,22.73c-.42,5.58-1.8,9.72-4.14,12.42-2.28,2.64-4.86,3.51-7.74,2.61-2.16-.66-3.45-2.07-3.87-4.23.54.12,1.08.18,1.62.18,2.88,0,5.32-1.02,7.33-3.06,2.01-2.04,3.01-4.47,3.01-7.29,0-1.56-.3-3.03-.9-4.41-1.26-3-3.42-4.83-6.48-5.49-.96-.3-1.95-.45-2.97-.45-3.12,0-5.73,1.2-7.83,3.6-2.34,2.34-3.51,5.34-3.51,9,0,2.1.48,4.08,1.44,5.94.96,1.86,2.25,3.45,3.87,4.77,1.62,1.32,3.5,2.46,5.62,3.42,2.13.96,4.38,1.59,6.75,1.89,2.37.3,4.74.42,7.11.36,1.85-.05,3.65-.33,5.4-.84-.98.97-1.93,1.96-2.84,3-2.44,2.81-4.57,5.88-6.35,9.16-2.05,3.78-2.93,8.44-3.29,12.69-.07.8-.02,6.12,1.03,8.4.54,1.16,1.34,1.54,2.52.14,1.69-2.01.51-7.75.16-11.5.55-.98,1.04-2.05,1.47-2.57,1.52-1.86,3.61-3.14,6.08-3.76,9.45-2.37,19.32,1.67,28.67-1.44,3.78-1.26,6.43-3.47,7.48-6.95,1.28-4.26-.61-9.15-5.9-9.73-3.66-.4-7.9,1.47-8.22,5.08-.21,2.31,1.36,3.59,3.35,4.65,1.65.88,3.85,2.32,2.41,4.27-.91,1.23-2.88,2.03-4.42,2.25-4.62.67-9.35-.31-13.97-.23-3.14.06-6.32.43-9.34,1.37-1.56.48-3.07,1.11-4.49,1.88-1.16.62-2.2,1.51-3.12,2.45.56-5.54,2.91-10.5,6.84-14.5,15.57-15.83,40.92-18.08,55.26-35.4,5.81-7.01,8.01-14.83,5.25-23.62Z"/>
  </g>
  <g>
    <text class="cls-11" transform="translate(343.73 416.32)"><tspan class="cls-54" x="0" y="0">SK N</tspan><tspan class="cls-41" x="58.68" y="0">C</tspan><tspan class="cls-54" x="76.86" y="0">ARE</tspan></text>
    <g>
      <path class="cls-27" d="m393.21,295.73c3.06,0,5.68-1.09,7.88-3.28,2.19-2.19,3.28-4.81,3.28-7.88s-1.09-5.68-3.28-7.88c-2.19-2.19-4.82-3.29-7.88-3.29s-5.69,1.1-7.88,3.29c-2.19,2.19-3.29,4.81-3.29,7.88s1.09,5.69,3.29,7.88c2.19,2.19,4.81,3.28,7.88,3.28Z"/>
      <path class="cls-27" d="m447.06,327.38c-3.38-10.75-13.95-19.32-25.34-14.64-7.87,3.24-13.73,12.1-9.35,20.36,2.81,5.3,7.73,6.33,13.17,6.4,4.52.06,10.92.74,10.75,6.62-.11,3.72-2.93,7.68-5.68,9.9-8.28,6.66-19.11,9.83-28.22,15.21-.67.4-1.33.8-1.99,1.22.97-1.99,1.56-4.19,1.72-6.61.24-2.88.38-10.89.41-24.03.03-13.14.13-21.15.32-24.03.72-9.24,3.81-14.58,9.27-16.02v-1.98c-7.02,1.56-13.23,2.34-18.63,2.34-5.22-.06-11.52-.84-18.9-2.34v1.98c5.4,1.44,8.46,6.78,9.18,16.02.24,3.36.36,10.97.36,22.81s-.12,19.42-.36,22.73c-.42,5.58-1.8,9.72-4.14,12.42-2.28,2.64-4.86,3.51-7.74,2.61-2.16-.66-3.45-2.07-3.87-4.23.54.12,1.08.18,1.62.18,2.88,0,5.32-1.02,7.33-3.06,2.01-2.04,3.01-4.47,3.01-7.29,0-1.56-.3-3.03-.9-4.41-1.26-3-3.42-4.83-6.48-5.49-.96-.3-1.95-.45-2.97-.45-3.12,0-5.73,1.2-7.83,3.6-2.34,2.34-3.51,5.34-3.51,9,0,2.1.48,4.08,1.44,5.94.96,1.86,2.25,3.45,3.87,4.77,1.62,1.32,3.5,2.46,5.62,3.42,2.13.96,4.38,1.59,6.75,1.89,2.37.3,4.74.42,7.11.36,1.85-.05,3.65-.33,5.4-.84-.98.97-1.93,1.96-2.84,3-2.44,2.81-4.57,5.88-6.35,9.16-2.05,3.78-2.93,8.44-3.29,12.69-.07.8-.02,6.12,1.03,8.4.54,1.16,1.34,1.54,2.52.14,1.69-2.01.51-7.75.16-11.5.55-.98,1.04-2.05,1.47-2.57,1.52-1.86,3.61-3.14,6.08-3.76,9.45-2.37,19.32,1.67,28.67-1.44,3.78-1.26,6.43-3.47,7.48-6.95,1.28-4.26-.61-9.15-5.9-9.73-3.66-.4-7.9,1.47-8.22,5.08-.21,2.31,1.36,3.59,3.35,4.65,1.65.88,3.85,2.32,2.41,4.27-.91,1.23-2.88,2.03-4.42,2.25-4.62.67-9.35-.31-13.97-.23-3.14.06-6.32.43-9.34,1.37-1.56.48-3.07,1.11-4.49,1.88-1.16.62-2.2,1.51-3.12,2.45.56-5.54,2.91-10.5,6.84-14.5,15.57-15.83,40.92-18.08,55.26-35.4,5.81-7.01,8.01-14.83,5.25-23.62Z"/>
    </g>
  </g>
  <g>
    <g>
      <text class="cls-18" transform="translate(573.41 356.71)"><tspan class="cls-59" x="0" y="0">j</tspan><tspan x="22.33" y="0">ah</tspan></text>
      <path class="cls-30" d="m697.56,331.78c-2.32-7.38-9.57-13.25-17.38-10.04-5.4,2.22-9.41,8.3-6.41,13.96,1.92,3.63,5.3,4.34,9.03,4.39,3.1.04,7.49.51,7.37,4.54-.07,2.55-2.01,5.27-3.9,6.79-5.68,4.57-13.11,6.74-19.35,10.43-4.25,2.51-8.24,5.53-11.48,9.27-1.67,1.93-3.14,4.04-4.36,6.28-1.41,2.59-2.01,5.79-2.26,8.7-.15,1.81-.27,9.05,1.74,9.76.69.24,1.46-.29,1.74-.96,1.25-2.97-.66-7.74-.94-10.83.38-.67.71-1.41,1.01-1.77,1.04-1.27,2.48-2.16,4.17-2.58,6.48-1.63,13.25,1.15,19.66-.98,2.6-.86,4.41-2.38,5.13-4.77.88-2.92-.42-6.27-4.05-6.67-2.51-.28-5.42,1.01-5.64,3.48-.14,1.59.93,2.47,2.3,3.19,1.13.6,2.64,1.59,1.65,2.93-.63.84-1.98,1.39-3.03,1.55-3.17.46-6.41-.21-9.58-.16-2.16.04-4.33.3-6.41.94-1.07.33-2.1.76-3.08,1.29-.8.43-1.51,1.04-2.14,1.68.39-3.8,2-7.2,4.69-9.94,10.68-10.86,28.06-12.4,37.9-24.28,3.98-4.81,5.49-10.17,3.6-16.2Z"/>
      <text class="cls-17" transform="translate(700.29 356.71)"><tspan x="0" y="0">ra</tspan></text>
    </g>
    <text class="cls-12" transform="translate(617.28 396.07)"><tspan class="cls-54" x="0" y="0">SK N</tspan><tspan class="cls-41" x="58.68" y="0">C</tspan><tspan class="cls-54" x="76.86" y="0">ARE</tspan></text>
  </g>
  <g class="cls-16">
    <g>
      <path class="cls-7" d="m-27.33,1149.43c4.13,7.88,11.28,16.11,20.09,14.84,1.84-.26,3.64-.95,5.49-.78,3.99.35,6.5,4.31,8.4,7.83,12.52,23.19,25.48,46.15,38.86,68.85,2.43,4.12,6.79,8.87,11.08,6.75,3.11-1.54,3.62-5.67,3.72-9.14.56-19.49,1.12-38.98,1.68-58.48.2-7.12,1.39-15.74,7.95-18.51,5.17-2.18,11.32.8,14.72,5.27,3.4,4.46,4.77,10.09,6.41,15.46,7.16,23.44,21.01,44.31,39.32,60.53,18.3,16.21,36.25,35.51,59.95,43.7,16.71,5.77,36.27,2.39,50.08-8.64,20.16-16.11,18.75-37.55,19.47-60.68.18-5.69.59-11.36.84-17.05.73-16.56-1.91-35.64,9-49.69,4.58-5.9,10.42-9.33,18.16-8.78v-21.42c-4.83,1.52-9.74,2.91-13.94,5.88-8.9,6.29-16.23,13.83-19.45,24.61-1.34,4.48-2.27,9.03-2.67,13.72-.71,8.3-.94,16.65-2.4,24.88-1.56,8.84-3.35,17.65-7.1,25.87-2.77,6.06-6.75,11.34-11.77,15.64-4.66,3.99-8.18,9.09-12.85,13.03-6.53,5.51-13.44,10.46-21.03,14.42-7.9,4.12-15.59,3.51-22.86-1.52-2.69-1.86-5.12-4.09-7.63-6.2-3.65-3.06-7.24-6.21-10.92-9.24-4.47-3.69-9.15-7.14-13.46-11-3.99-3.57-8.25-6.74-12.53-9.92-5.33-3.97-10.36-8.17-14.31-13.68-3.43-4.79-5.8-9.98-7.69-15.48-1.46-4.25-2.83-8.55-4.68-12.63-2.98-6.56-6.11-13.03-8.36-19.9-1.43-4.37-3.58-8.39-6.81-11.81-3.78-4-8.19-5.64-13.47-3.84-8.12,2.77-12.8,9.02-16.14,16.52-1.5,3.36-2.01,6.95-2.68,10.52-1.55,8.26-1.95,16.53-.79,24.87.53,3.81-.04,7.43-1.98,10.86-1.28,2.27-2.52,4.62-3.35,7.09-.73,2.19-.86,4.59-1.27,6.89-.23,1.27-.31,2.62-1.58,3.49-2.03-.39-3.25-1.89-4.36-3.35-2.04-2.68-4.03-5.42-5.79-8.29-3.12-5.1-6.09-10.29-9.07-15.47-2.65-4.63-5.42-9.21-7.79-13.98-4.16-8.41-6.77-17.4-9.52-26.33-2.18-7.07-6.06-13.03-11.96-17.61-2.98-2.31-6.19-2.99-9.76-1.66-.53.2-1.04.42-1.57.61-1.68.6-3.39.72-4.83-.45-1.8-1.47-3.53-3.03-5.16-4.68-5.53-5.62-8.83-12.12-8.24-20.3.54-7.47.64-14.97,1.3-22.43.16-1.8-1.26-3.72.33-5.41.41-3.69,1.26-7.3,1.34-11.06.1-5.37-.87-10.62-1.39-15.91-.2-2.01-.91-4-1.63-5.91-.9-2.38-2.83-3.67-5.33-4.04-1.11-.16-2.29,0-3.36-.28-1.13-.3-2.33-.77-3.18-1.53-1.16-1.03-2.53-2.26-2.92-3.65-1.04-3.76-3.62-6.45-5.75-9.45-2.54-3.58-5.45-6.96-7.12-11.06-1.97-4.82-3.82-9.67-5.03-14.73-.9.29-1.82.53-2.75.74.01.12.02.24.03.36-.21.03-.42.05-.63.08l-.03-.3c-.82.16-1.65.29-2.49.39-1.04.84-2.06,1.69-3.11,2.51.02.54.04,1.08.05,1.63.24,8.67,1.58,17.12,4.13,25.4,1.24,4.03,2.02,8.18,2.04,12.41.02,5.59-.13,11.17-.19,16.76-.03,2.7.05,5.39-.03,8.09-.09,2.96.62,5.87.27,8.85-.29,2.5-.22,5.03-.4,7.55-.11,1.58-.31,3.15-.6,4.71-1.04,5.65-1.43,11.34-.97,17.05.69,8.4,2.3,16.66,4.54,24.79.47-.03.93-.05,1.76-.1-.35.6-.47,1.1-.69,1.14-1.46.32-1.45,1.24-1.06,2.34.19.53.42,1.04.66,1.54,3.72,7.83,6.49,15.93,7.57,24.58.51,4.09,1.12,8.17,1.87,12.22,1.16,6.35,2.48,12.67,3.73,19,.46,2.37.97,4.74,1.33,7.12.9,6.02,1.48,12.1,2.66,18.06,1.43,7.2,2.37,14.37,1.7,21.73-.29,3.23.05,6.52-.02,9.77-.07,2.99.15,6.09-.57,8.94-1.31,5.24-.85,10.2.89,15.17.15.44.39.86.47,1.31.43,2.37.86,4.73,1.21,7.11.41,2.75-1.01,5.08-1.89,7.53-.76,2.11-1.87,4.13-2.35,6.29-1.13,5.04-2.86,9.86-4.63,14.68-4.56,12.42-8.33,27.25-6.25,40.58,2.02,12.88,13.64,27.28,26.43,16.12,1.41-1.23,2.67-2.65,4.12-3.83,1.97-1.6,3.85-1.6,5.94-.18,1.16.79,2.26,1.69,3.45,2.43,3.4,2.13,6.95,2.76,10.64.75,1.48-.8,2.94-1.66,4.33-2.61,3.69-2.52,7.66-3.19,12.05-2.39,5.94,1.08,11.66,2.82,17.19,5.21,2.86,1.24,5.61,1.2,8.41-.17,1.77-.87,3.59-1.63,5.42-2.36,3.3-1.32,5.28-.53,6.99,2.56,1.88,3.4,1.79,7.03,1.35,10.68-1.34,10.98-7.4,21.18-7.5,32.27-.02,1.9.18,3.85,1,5.56,3.03,6.32,15.38,4.05,20.1,1.02.86-.55,1.83-.94,2.76-1.4,4.68-2.28,9.58-3.79,14.83-3.92,2.72-.06,3.14.55,2.25,3.2-.5,1.48-1.07,2.94-1.71,4.67,6.64,0,12.92-.01,19.21.01,1.11,0,1.66-.6,2.22-1.42,2.32-3.39,4.73-6.72,7.05-10.11,3.14-4.59,5.8-9.5,7.22-14.85,2.52-9.51,4.74-19.11,5.77-28.92.65-6.17-.1-12.1-3.04-17.71-2.32-4.44-7.67-4.95-10.81-1.44-2.04,2.29-3.77,4.87-5.54,7.4-2.11,3.01-4.23,5.93-7.76,7.51-5.37,2.42-9.41-.75-10.54-4.97-1.72-6.46-4.15-12.61-8.23-17.96-2.34-3.07-5.39-5.39-8.72-7.39-4.98-2.99-10.45-4.67-15.97-6.13-6.43-1.69-12.94-3.12-19.45-4.48-3.39-.71-6.88-.91-10.3-1.52-4.87-.87-7.7-3.67-8.46-8.75-.69-4.6-1.53-9.24-2.95-13.65-1.37-4.28-4-7.76-9.02-8.54-1.43-.22-3.08-.4-3.93-1.89-1.32-2.29-3.45-3.64-5.55-5.05-2.97-2-6.25-2.01-9.2-.06-3.44,2.27-5.84,5.49-8,8.89-1.91,3-3.61,6.14-5.43,9.2-.62,1.04-1.24,2.13-3,2.26-.31-.75-.85-1.53-.97-2.38-.57-3.95-1.37-7.91-1.43-11.87-.05-3.58-1.18-6.67-2.56-9.83-1.15-2.64-2.16-5.36-3.03-8.1-.66-2.08-.71-4.26-.03-6.39.35,1.62.25,3.36.8,4.86,1.36,3.74,2.95,7.4,4.56,11.05.56,1.27,1.33,2.46,2.15,3.59,1.28,1.76,2.74,2.36,4.59,1.41,1.6-.83,3.13-2.08,4.27-3.48,2.94-3.62,4.37-8.02,5.83-12.38.69-2.03,1.4-4.07,2.3-6.01.86-1.86,2.23-2.42,4.17-1.89.88.24,1.77.65,2.52,1.18,1.45,1.03,2.84,2.15,4.2,3.3,2.6,2.19,5.3,4.17,8.71,4.9,1.47.32,2.94.61,4.39.98,2.31.59,4.07,1.96,5.12,4.09,1.2,2.43,2.54,4.85,3.33,7.42,2.15,6.96,4.14,13.97,6.01,21.01,1.73,6.52,5.9,10.51,12.25,12.24,4.05,1.1,8.19,1.93,12.31,2.75,5.51,1.09,11.02,2.26,16.59,3.02,6.13.84,11.63,3.11,16.45,6.81,4.3,3.3,8.21,7.12,12.4,10.57,5,4.12,8.31,4.57,13.22.38,1.66-1.41,2.94-3.44,3.94-5.41,1.89-3.73,3.5-7.61,5.15-11.46,2.94-6.82,4.49-13.89,3.66-21.37-.07-.59.06-1.21.09-1.81,3.53,5.64,5.19,11.68,4.6,18.2-.28,3.07-.94,6.11-1.39,9.17-.95,6.52-.1,12.86,1.82,19.14,1.69,5.54,3.61,11.11,2.89,17.04-.71,5.85-1.68,11.66-2.58,17.48-.7,4.53-4.84,15.84,4.03,14.86,2.56-.28,4.78-1.81,7-3.12,13.53-7.96,27.44-6.87,41.92-2.61,6.38,1.88,11.08,5.56,13.72,11.86,2.47,5.89,4.93,11.75,6.31,18.01.47,2.13.66,2.27,2.8,2.3,3.85.05,7.7.06,11.55.06,13.71,0,27.42-.03,41.13-.04,9.01,0,18.02.01,27.03,0,1.8,0,3.6-.14,5.25-.21-.03-.54-.04-.81-.08-1.58,1.88,1.98,3.73,1.7,5.6,1.28v-45.65c-.62,2.53-1.18,5.08-1.88,7.59-.9,3.23-1.88,6.44-2.9,9.64-1.38,4.3-4.17,7.79-7.23,10.91-1.34,1.37-3.83,1.75-5.88,2.27-1.88.48-3.85.63-5.8.73-.62.03-1.72-.49-1.82-.93-.33-1.44-1.37-1.55-2.46-1.9-1.31-.42-2.57-1.02-3.82-1.61-1.69-.8-3.52-1.43-4.97-2.56-1.32-1.03-2.02-2.83-3.31-3.93-12.83-11-29.17-13.01-40.72-25.87-6.63-7.38-12.11-15.81-19.38-22.57-2.36-2.2-5.17-4.31-8.39-4.36-6.51-.1-9.09,6.87-13.26,10.55-4.64,4.09-10.51,5.76-16.62,5.7-2.49-.02-4.82-1.14-6.43-3.1-6.08-7.41-10.87-15.52-12.06-25.22-.55-4.45-.34-8.98-.54-13.47-.25-5.65-1.26-11.18-3.32-16.46-1.69-4.35-3.6-8.62-5.36-12.95-.37-.92-.54-1.93-.78-2.91.7.99,1.56,1.91,2.01,3,2.25,5.53,4.68,11.02,6.47,16.71,2,6.34,2.9,12.96,3.3,19.6.37,6.18,1.84,11.98,5.02,17.33,2.31,3.89,5.45,6.89,9.5,8.9,5.78,2.87,13.03.66,17.08-3.51,2.67-2.75,4.13-6.17,5.07-9.86.39-1.54.83-3.09,1.51-4.52.99-2.08,2.45-2.71,4.63-1.92,1.82.67,3.7,1.47,5.22,2.65,5.55,4.32,10.65,9.13,15.37,14.38,6.02,6.69,12.7,12.72,19.77,18.29,1.88,1.48,4.24,2.35,6.42,3.44,4.86,2.42,9.94,4.46,14.55,7.28,4.61,2.82,8.76,6.38,13.1,9.63.6.45,1.08,1.08,1.73,1.4,3.59,1.77,6.8,4.29,10.72,5.38,1.07.3,2.28.69,3.29.46,2.96-.68,5.86-1.65,8.77-2.54.43-.13.91-.43,1.13-.79.54-.9.71-2.22,1.46-2.73.88-.59,1.37-1.3,2.03-2.03,2.65-2.93,3.6-6.72,4.66-10.18.99-3.26,3.16-6.07,3.49-9.53.02-.19.39-.35.6-.52v-34.38c-.55,2.74-.98,5.51-1.66,8.21-1.43,5.63-4.09,10.64-8.22,14.76-1.44,1.44-3.1,2.74-4.83,3.82-3.38,2.11-6.83,2.63-10.6.56-7.79-4.29-15.72-8.32-23.55-12.55-3.29-1.78-6.5-3.71-9.66-5.71-1.25-.79-2.25-1.96-3.37-2.94-4.24-3.69-8.33-7.58-12.78-10.99-4.37-3.35-8.97-6.47-13.74-9.24-5.67-3.29-11.63-6.07-17.44-9.13-4.55-2.4-9.05-4.88-13.57-7.33-2.67-1.45-5.46-2.56-8.51-2.71-6.55-.32-11.45,3.57-13.24,10.29-.25.94-.66,1.85-1.21,3.33-1.04-1.13-1.9-1.75-2.32-2.59-2.3-4.63-5.31-8.78-8.21-13.02-3.48-5.07-6.5-10.43-9.22-15.96-2.76-5.62-5.85-11.08-8.68-16.67-2.83-5.58-5.54-11.22-8.26-16.86-3.29-6.82-6.42-13.72-9.84-20.47-1.69-3.33-3.92-6.37-5.84-9.59-2.78-4.66-5.49-9.37-8.23-14.05-.23-.4-.43-.84-.72-1.2-2.75-3.36-6.62-2.92-8.54.95-1.41,2.84-1.69,5.96-1.81,9.01-.17,4.37-.01,8.77.29,13.14.35,5.08,1.95,9.92,3.85,14.59,3.82,9.39,4.19,19.09,3.09,28.97-.23,2.03-.73,4.04-1.22,6.04-2.43,9.9-14.4,13.45-23.26,14.65-1.28.17-2.65.28-3.82-.27-1.93-.9-2.66-3.21-3.2-5.27-3.85-14.79-6.96-29.39-14.35-42.91-3.1-5.67-6.31-11.28-9.83-16.7-1.59-2.46-3.93-4.46-6.1-6.5-3.01-2.84-7-3.42-10.84-4.29-2.47-.56-5.01-.91-7.39-1.72-4.51-1.54-9.1-2.97-12.78-6.28-2.19-1.97-4.11-4.14-5.39-6.77-2.09-4.29-3.95-8.7-6.06-12.99-1.85-3.76-3.91-7.42-5.85-11.14-1.21-2.32-2.18-4.78-3.58-6.97-1.44-2.26-3.02-4.57-4.99-6.35-3.3-2.97-6.21-2.15-7.89,1.94-.49,1.19-.66,2.52-.97,3.79-.26,1.07-.5,2.15-1.25,3.25-.41-1.77-.84-3.54-1.24-5.32-1.67-7.49-3.46-14.94-7.98-21.38-.21-.3-.26-.72-.35-1.11.7.74,1.46,1.44,2.06,2.24,1.77,2.35,3.56,2.37,4.98-.18.89-1.6,1.49-3.35,2.37-5.37.67.77,1.2,1.25,1.57,1.83,4.48,7.02,8.93,14.06,13.39,21.1,4.22,6.66,7.86,13.61,11.13,20.78,2.05,4.51,4.24,9.01,6.83,13.22,4.55,7.4,11.36,10.3,19.95,8.93,1.97-.31,3.97-.64,5.76.5,1.42.9,2.77,1.95,4.01,3.09,5.62,5.19,10.19,11.26,14.08,17.79,5.45,9.15,10.41,18.59,14.27,28.54,1.32,3.39,1.99,7.02,3.08,10.51,1.22,3.92,2.31,7.91,3.93,11.67,2.73,6.35,8.71,7.31,14.69,4.56,8.33-3.83,12.53-10.51,13.44-19.57.57-5.66.43-11.24-.87-16.74-.97-4.08-2.55-8.01-3.6-12.08-2.07-7.96-2.57-16.06-1.52-24.22.84-6.51.35-26.77,9.37-16.27,7.04,8.19,11.44,21.73,16.5,31.32,10.99,20.84,21.87,41.75,32.97,62.53,1.8,3.41,4.02,7.16,7.77,8.06,2.64.63,5.35-.35,8.01-.86,10.46-2.01,20.8,3.24,30.17,8.32l64.36,34.9c8.19,4.44,17.66,9.01,26.45,5.9,11.93-4.22,15.02-19.55,14.75-32.18-.91-42.21-17.71-86.05-2.23-125.33,1.24-3.14,4.74-6.76,7.29-4.55,0-10.8-.01-21.59-.02-32.39-8.23-1.71-16.48,4.37-20.09,11.96s-3.66,16.31-3.65,24.71c.04,31.86.08,63.72.12,95.57,0,2.22-.02,4.55-1.08,6.5-1.74,3.21-5.66,4.44-9.24,5.19-35.72,7.56-73.93-3.58-103.13-25.47-29.2-21.89-49.94-53.68-63.11-87.7-2.89-7.47-13.05-22.4-21.17-10.4-2.67,3.95-2.82,9.03-2.87,13.8l-.71,63.29c-.03,2.79-.15,5.83-1.96,7.96-7.73,9.09-29.94-35.93-32.81-41.89-5.8-12.06-11.14-25.2-21.97-33.06-6.14-4.46-13.57-6.81-19.92-10.97-17.78-11.66-23.7-34.88-25.1-56.08-.31-4.77-.57-9.83-3.28-13.77-2.71-3.94-8.92-5.87-12.34-2.53-.35-29.04-4.68-58.02-12.82-85.9,7.42,15.39,11.26,32.48,11.16,49.55-.04,6.47.26,14.52,6.15,17.2,2.49,1.13,5.46.93,7.86,2.22,5.14,2.78,4.79,10.09,4.23,15.9-1.78,18.66,1.98,37.82,10.69,54.43Zm-4.7-68.56c.09.36.2.72.25,1.09.01.12-.17.26-.26.39-.24-.26-.48-.51-.72-.77.24-.24.49-.47.73-.71Zm-38.7-69.67c-.36-.11-.72-.22-1.07-.33.03-.13.06-.27.09-.4.38.06.77.11,1.15.17-.06.19-.11.37-.17.56Zm334.82,378.2c.41.1.83.2,1.24.31l-.13.47c-.41-.12-.82-.24-1.23-.36.04-.14.08-.28.11-.42Zm-306.34-128.08c-.14,0-.29-.01-.43-.02.04-.47.07-.95.11-1.42.11,0,.21,0,.32.01v1.43Zm158.8,15.6c1.19,2.19,2.42,4.37,3.51,6.61.4.83.54,1.78.77,2.7-2.57-2.99-3.98-6.58-5.1-10.38.28.36.6.68.82,1.07Zm-161.02-64.07c.26,1.13.46,2.28.78,3.39.62,2.15,1.22,4.31,2,6.4.43,1.14,1.25,2.1,2.64,2.28,1.49.19,2.77-.49,3.43-1.89,1.21-2.54,1.87-5.19,2.11-8.01.2-2.39.71-4.76,1.09-7.14.28-.06.56-.12.84-.18.79,1.12,1.67,2.2,2.35,3.38,2.75,4.75,6.67,8.21,11.39,10.96,7.94,4.63,15.75,9.46,23.66,14.14,2.57,1.52,5.2,2.96,7.88,4.28,5.02,2.48,9.52,5.64,13.21,9.85,3.71,4.23,6.68,8.92,8.84,14.17,1.88,4.57,3,9.27,3.25,14.14.18,3.54-.26,7.1-.28,10.65-.02,2.24.25,4.48.33,6.72.17,4.45,4.44,8.36,8.61,8.63,3.08.2,6.21.41,9.26.08,8.4-.91,16.77-2.04,25.14-3.24,3.03-.43,6.02-1.05,8.48-3.33,2.3-2.13,3.24-4.75,3.82-7.61.96-4.74.5-9.5-.1-14.22-.88-6.86-1.35-13.75-1.46-20.66-.08-4.84-1.16-9.42-2.83-13.94-1-2.71-1.56-5.59-2.27-8.4-.11-.42.03-.91.09-1.91.95.61,1.77.88,2.2,1.44,2.41,3.18,4.9,6.33,7.05,9.69,3.62,5.67,7.09,11.45,10.46,17.28,2.53,4.36,4.8,8.87,7.18,13.31.12.22.09.52-.22,1.05-.5-.67-1.08-1.3-1.49-2.03-2.43-4.33-4.69-8.75-7.27-12.98-1.18-1.92-2.4-4.07-5.1-4.48-2.17-.33-3.7.43-4.4,2.46-.91,2.64-.75,5.38-.52,8.07.37,4.19,1.09,8.35,1.52,12.54.72,6.97,1.49,13.94,1.87,20.93.11,1.98-.7,4.24-1.72,6-1.83,3.14-5.11,2.93-8.28,2.78-6.37-.3-12.75-.76-19.12-.67-4.77.07-9.52.94-14.29,1.35-4.89.42-9.75.44-14.4-1.58-3.72-1.61-5.49-4.44-5.38-8.39.13-4.68.49-9.36.67-14.04.28-7.15-1.49-13.84-5.52-19.7-4.09-5.95-8.96-11.32-15-15.41-3.72-2.51-7.71-4.62-11.51-7.03-3.48-2.21-6.76-4.74-10.28-6.86-4.57-2.75-9.19-5.47-14.01-7.72-1.9-.89-4.47-.9-6.62-.59-3.11.46-4.77,2.93-5.37,5.85-.67,3.3-.96,6.67-1.46,10-.32,2.17-.72,4.32-1.09,6.48-.2.02-.4.04-.6.06-.33-.61-.82-1.18-.98-1.83-.83-3.42-1.46-6.9-2.4-10.3-1.17-4.23-2.44-8.45-3.92-12.58-1.34-3.76-2.01-7.64-2.93-11.48.23-.06.46-.12.69-.18Zm-2.77-11.65c.16.17.36.32.46.52.04.08-.13.27-.21.41-.18-.15-.36-.3-.52-.45.12-.21.19-.35.27-.49Zm-6.45-38.19c.11.4.22.8.33,1.2-.11.05-.22.1-.33.15-.2-.37-.39-.73-.59-1.1.2-.08.39-.17.59-.25Zm-1.37-7.32c.19.89.39,1.79.58,2.68-.14.04-.27.07-.41.11-.28-.87-.55-1.75-.83-2.62.22-.06.44-.11.66-.17Zm-14.12-141.67c.13-.04.26-.08.4-.11.21.88.42,1.75.6,2.63,0,.02-.29.09-.57.19-.14-.92-.29-1.81-.43-2.7Zm.73,11.01c.14.32.28.65.42.97-.13.05-.27.11-.4.16l-.32-1.01c.1-.04.2-.08.29-.12Zm.71,9.14c-.23-.67-.47-1.33-.7-2l.31-.12c.26.67.51,1.35.77,2.02-.13.03-.25.06-.38.1Zm1.59-.25c-.02-.09.18-.24.27-.36.16.2.31.39.49.61-.18.16-.3.27-.42.37-.12-.21-.28-.41-.34-.63Zm.96,54.61c-.15,0-.31,0-.46,0v-9.62c.15.01.31.03.46.04v9.58Zm.37-35.09h-.11v-1.97s.07,0,.11,0v1.97Zm.35-13.99c-.23-.52-.47-1.05-.7-1.57.16-.06.32-.12.48-.18l.57,1.6c-.11.05-.23.1-.34.15Zm1.02,6.28c-.21-1.16-.43-2.33-.64-3.49.19-.04.37-.08.56-.11.13,1.18.26,2.36.39,3.54l-.31.06Zm.44,32.74c-.13.35-.25.7-.38,1.06-.15-.05-.31-.11-.46-.16.12-.34.22-.69.37-1.01.01-.03.3.07.47.11Zm-.64,2.8c1.36,2.65-.1,5.19-.11,7.8-.66-2.61-.22-5.21.11-7.8Zm-.15,30.48c.2-.02.39-.04.59-.06.06.81.13,1.62.19,2.43l-.54.06c-.08-.81-.16-1.61-.25-2.42Zm.27,4.92c.16-.02.32-.04.48-.06.24,2.06.47,4.12.71,6.18l-.48.06c-.24-2.06-.47-4.12-.71-6.18Zm.68-16.75c.3-1.38.6-2.76.89-4.14.28,1.45.47,2.89-.89,4.14Zm.08,34.21c.08-.03.17-.06.25-.09.11.32.21.64.32.95-.09.03-.18.06-.27.09-.1-.32-.2-.64-.3-.95Zm7.52,4.42c-.77,1.52-1.42,2.8-2.06,4.07-1.56.28-2.46-.92-3.67-1.52-1.6-.8-.95-2.08-1.27-3.23h2.32c-.9-4.26-1.76-8.36-2.62-12.45.23-.05.46-.1.68-.15.95,3.91,1.91,7.82,2.84,11.64,1.33.58,2.5,1.08,3.77,1.64Zm-5.07-54.2c-.44,2.83-.3,5.74-.58,8.6-.09.89.16,2.09-1.03,2.6.27-6.86.56-13.7.85-20.54.59,3.09,1.27,6.12.76,9.34Zm-.41-28.63c-.12,0-.24,0-.36,0v-7.38c.12,0,.24,0,.36,0v7.39Zm-.09-9.81l-4-15.38c2.53,4.87,4.12,9.98,4,15.38Zm-4.05-16.99c-.24.09-.48.18-.72.27l-1.45-4.18.62-.23,1.55,4.14Zm-2.11-6.71c-.2.03-.39.05-.59.08-.22-1.03-.44-2.06-.67-3.09.13-.03.26-.07.4-.1.29,1.04.57,2.07.86,3.11Z"/>
      <g class="cls-46">
        <rect class="cls-9" x="47.81" y="1139.7" width="240.07" height="239.87"/>
      </g>
    </g>
  </g>
  <rect class="cls-24" x="34.78" y="1137.9" width="240.07" height="240.07"/>
  <g class="cls-47">
    <g>
      <path class="cls-26" d="m905.96,1301.66c9.69-10.91,18.61-22.79,16.78-35.46.31,2.14,6.89,6.34,8.06,9.1,1.76,4.15,1.07,7.36-.71,11.36-3.75,8.46-11.62,16.43-22.08,21.42-4.45,9.2-12.82,17.43-23.75,23.34,2.12.52,1,2.79-.51,3.96-20.58,16.06-50.4,26.04-81.11,27.15-11.9.43-23.99-.41-35.65,1.3-20.84,3.05-39.29,14.04-60.55,13.08-17.98-.81-32.96-10.13-43.8-20.3-8.18-7.68-14.91-16.14-19.83-25.09-5.09-9.26-8.32-19.12-15.48-27.68-9.67-11.55-20.29-20.48-27.57-33.14-4.5-7.84-9-14.08-19.58-18.14-7.41-2.84-19.93-4.54-21.05-11.75-.36-2.33.83-4.63,2.06-6.81,11.67-20.7,28.04-40.07,48.3-57.15,10.44-8.8,22.2-17.34,27.32-28.24,3.51-7.47,3.62-15.51,5.85-23.22,2.23-7.71,7.34-15.69,17.28-19.26,12.01-4.31,26.42-.85,39.91-.83,14.63.02,29.15-4.38,39.17-11.88-16.33,6.68-35.72,9.6-54.54,8.21-8.86-.66-18.1-2.21-26.45-.04-11.34,2.95-17.23,11.84-19.31,20.24-2.08,8.4-1.58,17.19-5.61,25.22-4.09,8.16-12.47,14.81-20.26,21.49-13.33,11.45-25.42,23.64-35.92,36.48-6.06,7.41-30.31,32.18-23.19,40.75,1.28,1.54,3.61,2.47,5.84,3.32,9.01,3.46,22.41,6.01,27.85,12.71,5.04,6.19,7.62,13.12,11.82,19.58,4.54,6.98,11.31,11.45,18.22,17.2,2.3,1.91,4.45,3.92,6.67,5.88.22.19.6.36.65.57,1.04,4.56,5.37,8.49,7.43,12.82,2.65,5.59,3.95,11.38,7.02,16.93,7.53,13.58,24.35,36.02,44.01,42.49,1.71.56,3.49.99,5.27,1.43,7.71,1.87,16.48,5.17,24.74,5.25,11.02.1,19.35-5.19,28.83-8.41,11.51-3.9,24.15-6.14,36.93-6.5,17.08-.48,34.76,1.93,51.65-.57,19.35-2.86,37.62-10.02,51.77-19.68,16.17-11.03,25.34-26.16,38.87-38.66,14.03-12.96,26.08-28.45,15.92-44.9-15.17-24.58-69.09-29.48-79.75-55.21-4.7-11.35.4-24.8-9.38-34.41-5.76-5.66-15.36-8.53-23.72-12.23-16.22-7.2-28.77-18.44-34.88-31.24-1.22-2.55-2.35-5.34-5.34-7.02-1.71-.96-3.91-1.47-5.38-2.6-3.5-2.69-1.06-7.07,2.28-9.84,3.34-2.77,7.71-5.47,7.91-9.11,7.66,16.57,17.75,34.81,40.24,42.04,15.02,4.83,34.77,4.46,44.43,13.9,11.94,11.67-1.45,27.89,1.37,42.13,2.32,11.7,15.46,20.85,29.13,27.7,13.67,6.86,28.93,12.61,39.4,21.85-17.23-6.17-34.66-12.52-48.89-21.75-14.23-9.23-25.13-21.85-25.63-35.46-.35-9.53,4.02-20.03-3.44-28-6.52-6.95-19.36-8.95-30.24-12.2-24.01-7.18-42.18-23.36-46.59-41.48,2.02,17.38,17.36,33.73,39.26,41.86,11.75,4.36,26.05,7.02,32.93,15.03,8.34,9.72,1.57,22.24,3.95,33.46,3.39,15.98,24.29,26.77,43.44,35.67,19.15,8.89,40.1,19.61,43.66,35.57,3.53,15.82-11.38,30.28-23.61,43.72-12.74,14.01-23.39,29.06-38.38,41.91s-35.48,23.63-59.01,25.2c-20.47,1.36-41.33-4.31-61.44-1.33-19.54,2.89-35.81,13.64-55.7,14.85-20.48,1.25-39.46-8-53.29-18.77-15.29-11.9-26.8-26.19-33.47-41.53-4.99-11.48-7.95-24.34-20.53-32.44-8.45-5.44-20.44-8.07-27.13-14.61-7.48-7.33-7.04-18.42-17.37-23.75-9.03-4.66-23.66-3.22-29.84-9.8-4.36-4.64-1.94-10.88,1.47-15.88,7.48-10.99,19.03-20.57,24.57-32.13,4.83-10.08,4.99-21.45,13.2-30.36,7.82-8.5,21.69-13.32,30.56-21.28,12.21-10.95,13.21-25.9,17.21-39.56,4-13.66,14.47-28.65,33.89-31.27,14.91-2.01,29.49,4.1,44.57,5.45,15.26,1.37,31.27-2.48,42.13-10.13.49,6.06.98,12.12,1.48,18.18-9.44,5.51-21.08,9.11-33.23,10.28-15.5,1.49-33.49-.38-44.75,7.26-9.41,6.38-9.79,16.67-12.91,25.61-11.71,33.62-65.84,52.53-80.81,85.5-.93,2.06-1.71,4.23-1.18,6.36,1.29,5.17,9.22,7.81,15.48,10.66,19.22,8.75,28.06,24.99,36.7,39.93,12.78,22.09,27.67,43.61,45.29,63.99,5.76,6.66,12.28,13.51,22.21,16.95,18.29,6.34,39.44-1.06,58.78-5.47,38.13-8.69,82.34-5.93,115.14-22.14,17.32-8.56,29.19-21.44,40.63-34,1.1-1.2,2.2-2.42,3.29-3.65Zm1.41,31.56c-.87-.19-1.74-.38-2.94-.63.57,1.32,1.44,1.51,2.94.63Zm36.15-43.84c-.49-.6-.81-.97-1.25-1.51-.48.57-.85,1.02-1.39,1.65,1.12-.06,1.81-.1,2.64-.15Zm-148.98-158.76c-.38.03-.76.07-1.14.1.19.49.37.98.59,1.46.01.03.61-.03.61-.05,0-.5-.03-1.01-.06-1.51Zm111.04,199.33c.12.17.23.33.35.5.78-.3,1.57-.59,2.35-.89-.09-.13-.18-.26-.27-.4-.81.26-1.62.52-2.43.78Zm19.31-16.62c0-.06,0-.12,0-.19-.84,0-1.69,0-2.53-.01,0,.06,0,.12,0,.19h2.53Zm7.45-5.98c-.03.12-.05.23-.08.35.86.11,1.71.22,2.57.33.03-.14.05-.28.08-.42-.86-.09-1.71-.18-2.57-.26Zm17.84-24.31c-.32.04-.64.08-.96.13.18.42.34.85.57,1.25.01.03.59-.11.9-.16l-.51-1.22Zm-34.88,18.13c-.04-.13-.07-.26-.11-.4-.64.09-1.28.18-1.91.27l.11.38c.64-.08,1.28-.17,1.92-.25Zm-55.39-110.11c.19.11.37.21.56.32.37-.33.75-.67,1.12-1-.16-.1-.31-.19-.47-.29-.41.32-.81.65-1.22.97Zm24.62,138.36c.02-.12.04-.25.06-.37-.41-.06-.83-.18-1.23-.17-.31,0-.61.18-1.65.52,1.51,0,2.16.01,2.81.01Zm2.03-2.6c.13-.12.26-.24.39-.35-.44-.14-.89-.28-1.33-.41-.05.07-.1.15-.15.22.36.18.73.37,1.09.55Zm31.96-79.47c.25-.11.52-.23.78-.35-.14-.11-.32-.34-.42-.32-.3.05-.57.19-.85.29.14.11.27.22.49.38Zm18.69,12.94l-.23-.43c-.47.18-.95.35-1.42.53.07.11.14.21.21.32.48-.14.96-.28,1.44-.41Zm-32.25,43.83l-.13.48h1.62c.01-.1.02-.21.04-.32-.51-.05-1.02-.11-1.53-.16Zm21.38-34.37c-.63-.03-.98-.11-1.26-.05-.28.07-.48.29-.71.44.1.09.2.17.3.26.47-.18.93-.36,1.67-.65Zm2.49,12.94c-.37,0-.68-.04-.95.01-.14.03-.22.22-.33.34.31.05.62.13.93.12.09,0,.18-.24.34-.48Z"/>
      <path class="cls-26" d="m958.23,1324.27c-1.62.34-3.25.68-2.89,2.45.89.26,1.96.57,3.27.95-.3.37-.51.74-.87,1.02-1.24,1-2.44,1.9-3.01,3.32-.53,1.32-2.27,2.38-3.32,3.62-3.78,4.45-7.31,8.99-11.74,13.18-4.02,3.8-7.54,7.87-11.12,11.88-.68.76-.53,1.86-.96,2.76-2.12,4.49-4.32,8.95-6.45,13.44-1.44,3.03-2.64,6.12-4.24,9.1-1.17,2.19-2.61,4.34-4.31,6.35-1.95,2.3-4.39,4.39-6.46,6.65-2.06,2.24-5.11,3.44-8.36,4.6-3.84,1.37-7.73,2.76-11.19,4.54-2.14,1.1-3.94,2.79-5.14,4.49-3.38,4.78-7.91,9.04-12.57,13.15-6.56,5.77-18.47,7.52-27.71,3.67-4.13-1.72-8.21-2.31-12.49-3.72-9.53-3.14-21.54-3.2-31.92-3.51-3.53-.1-7.11-.61-10.36-1.86-1.11-.43-2.49-.49-3.72-.76-5.28-1.14-10.74-1.62-16.18-1.6-4.56.01-9.08.67-12.95,2.65-1.35.69-2.8,1.3-4.27,1.86-6.06,2.33-10.94,5.69-15.99,8.93-2.19,1.4-4.93,2.37-7.28,3.66-2.2,1.21-4.67,1.92-7.3,2.46-3.03.62-6.04.92-9.23.52-5.47-.69-10.58-1.85-15.39-3.92-6.04-2.6-12.29-4.96-18.59-7.23-2.07-.75-4.54-1.02-6.87-1.32-2.85-.37-5.43-1-7.93-2.13-3.72-1.68-6.91-3.7-9.19-6.29-1.77-2.01-2.92-4.3-4.34-6.47-4.03-6.2-11.51-11.63-17.32-17.07-1.98-1.86-3.97-3.71-5.83-5.63-7.75-7.96-13.08-16.61-15.97-26.01-1.16-3.78-2.02-7.62-3.46-11.35-2.28-5.92-4.61-11.85-9.25-17.18-5.94-6.81-18.55-8.95-29.34-6.18-10.79,2.77-18.54.34-24.22-5.26-4.69-4.63-4.22-12.27-4.03-17.66.08-2.05.29-4.13-.39-6.14-4.96-14.68-31.85-6.55-44.91-11.69-1.18-.46-7.89-5.33-8.21-5.31.36-.03,4.12,0,4.08.17.14-.68.29-1.37.43-2.05.61.1,1.16.35,1.54.7.74-1.6,4.04-1.36,6.3-.79-1.05-1.36-3.76-1.42-5.94-1.21-15.39,1.47-2.74-8.43,3.43-10.4-1.31,1.01-3.03-.99-2.83-2.35,2.64-18.7,27.68-33.99,25.38-52.73-.7-5.68-3.96-11.21-3.34-16.9.76-7.04,7.28-13.01,13.53-18.51,8.6-7.58,17.25-15.19,27.35-21.79,4.76-3.11,9.87-6.01,13.7-9.7,12.3-11.85,8.61-28.31,14.05-42.5,4.49-11.69,15.14-21.62,25.57-31.23,5.9-5.44,12.51-11.22,21.94-12.9,5.83-1.04,12.02-.34,17.81.83,21.73,4.4,42.11,15.45,64.41,12.96,13.15-1.47,24.24-7.52,34.17-13.76,1.64,2.38-.38,5.19-2.67,7.28-12.13,11.09-34.01,16.37-53.29,12.85-9.22-1.68-17.58-5.13-26.41-7.65-8.83-2.52-18.83-4.11-27.81-1.9-7.79,1.91-13.69,6.39-18.9,10.9-10.32,8.92-19.53,18.96-22.32,30.31-2.65,10.79.55,22.5-6.17,32.37-3.22,4.72-8.45,8.58-13.49,12.43-12.58,9.63-24.4,19.75-35.37,30.31-2.6,2.5-5.22,5.14-6,8.2-.99,3.9,1.17,7.81,1.9,11.74,1.78,9.66-5.08,18.94-11.93,27.37-5.5,6.76-11.12,13.47-16.88,20.12.02,5.23-4.48,10.33-11.14,12.61,1.56.02,3.11.04,4.67.06-1.54,1.64-.9,4.1,1.36,5.26-1,.64-2.01,1.28-3.01,1.92,10.73,5.31,21.48,4.61,33.69,5.6,8.76.71,14.82,4.86,17.7,10.81,2.67,5.52,2.8,11.44,4.79,17.09.61,1.72,1.33,3.48,2.88,4.88,4.09,3.71,12.04,2.33,17.65,2.65,21.32,1.2,27.47,11.91,35.17,23.81,1.95,3.02,2,6.34,3.16,9.48,1.39,3.79,2.37,7.68,4.22,11.35,2.22,4.4,5.29,8.59,7.8,12.93,2.63,4.54,7.06,8.24,10.83,12.27,2.19,2.33,5.01,4.2,7.51,6.29,4.14,3.46,8.19,7.08,10.73,11.27,1.64,2.71,2.77,5.62,5.24,8,5.06,4.87,15.49,3.67,22.72,5.37,9.76,2.3,17.6,7.63,28.13,8.49,9.43.77,17.23-2.57,24.01-6.79,21.92-13.63,49.29-7.3,75.26-7.61,7.85-.1,17.24,1.76,23.85,4.83,2.07.96,4.37,1.34,6.42,2.19,1.63.68,3.3,1.32,5.46,2.18,3.37-.3,7.42-.47,10.87-2.27,2.78-1.45,5.3-2.93,7.28-5.07,5-5.39,10.25-10.95,17.94-14.63,7.56-3.61,14.55-6.34,21.15-10.87.26-.18.47-.39.65-.61,12.97-15.7,25.23-32.24,37.39-48.21.43.03,1.42.1,3.24.22-1.1-.59-1.57-.84-2.16-1.15.81-1.14,2.16-2.03,2.48-3.46.25-1.11,2.2-1.66,4.04-1.63.7,0,1.4,0,2.13.01.47-.74.92-1.44,1.45-2.27-.86,0-1.64,0-2.56-.01,2.56-2.93,5.01-5.73,7.47-8.54,1.86.02,1.51.87,1.16,1.84.76.12,1.51.24,2.39.39-.15.31-.31.52-.36.74-.17.84-2.81.1-1.98,1.55,0,0,.1-.07.1-.07Zm-462.51-54.06c-.33.28-.66.56-.99.85l.37.37c.7-.2,1.4-.41,2.09-.61-.04-.15-.09-.3-.13-.44-.5-.02-.99-.05-1.49-.07-.19-.38-.39-.76-.58-1.14-.16.09-.32.18-.48.28.4.26.8.51,1.2.77Zm-.62,1.93c-2.53.44-4.73.82-7.04,1.22.25.22.64.79.95.77,2.28-.15,4.54-.42,6.95-.67-.4-.62-.67-1.03-.86-1.33Zm13.6,11.34c1.2.19,2.36.37,3.52.55.09-.16.18-.31.27-.47-.68-.39-1.35-.77-2-1.14-.67.39-1.18.7-1.8,1.06Zm.91,2.42q1.51,1.84,3.88,1.32c-1.21-.41-2.18-.74-3.88-1.32Zm-14.62-10.35l-.12-.54c-1.08.09-2.17.17-3.25.26.03.16.05.32.08.48,1.1-.07,2.2-.13,3.3-.2Zm4.67-15.19l-.23-.53c-1.26.37-2.52.74-4.07,1.2,1.96.58,3.09-.13,4.29-.66Zm-13.27,15.88c2.74.54,2.95.47,3.12-1.13-1.05.38-2.01.73-3.12,1.13Zm13.26,5.15c-.06-.15-.13-.29-.19-.44-.75.12-1.5.24-2.25.37.04.13.08.26.12.39.78-.1,1.55-.21,2.33-.31Zm-5.23-4.24c.03.1.06.21.09.31.81-.1,1.63-.2,2.44-.3-.03-.12-.07-.24-.1-.36-.81.12-1.62.23-2.43.35Zm79.76-135.12c0-.14-.02-.27-.03-.41h-1.77c0,.11,0,.23-.01.34.6.02,1.2.05,1.81.07Zm-72.77,112.63c0-.18.02-.37.03-.55-.61-.04-1.22-.08-1.83-.13-.03.15-.06.3-.08.45.63.08,1.26.15,1.89.23Zm29.39-34.35s-.04-.08-.06-.13h-2.01s0,.07,0,.12c.69,0,1.38,0,2.07.01Zm417.85,115.53c-.23-.03-.46-.06-.68-.09v1.12c.16,0,.33.02.5.02.06-.35.12-.7.18-1.06Zm-.86-4.35c.02.1.04.19.06.29.53-.02,1.06-.04,1.6-.06,0-.08,0-.15-.01-.23h-1.65Zm-306.7,58.8c-.22.03-.43.05-.65.08.2.14.37.31.61.4.1.03.33-.13.5-.2-.15-.09-.31-.18-.46-.27Zm14.91,26.25c-.3-.11-.56-.24-.85-.29-.09-.02-.25.18-.38.27.25.13.49.28.76.38.05.02.26-.19.47-.36Zm-131.52-231.16s0,.07,0,.11c.47,0,.94,0,1.4,0,0-.04,0-.07,0-.11h-1.4Zm51.61-45.51c.27-.13.45-.22.62-.3-.19-.14-.35-.33-.58-.41-.12-.04-.38.12-.57.19.18.17.36.35.53.52Zm-51.92,146.15c-.06.14-.12.29-.18.43h1.41c0-.05.01-.11.02-.17-.41-.09-.83-.17-1.24-.26Zm-7.01-.92c.24.08.48.15.72.23.13-.35.27-.7.37-1.05,0-.02-.48-.15-.49-.14-.22.31-.41.64-.6.96Zm-21.36-2.49c-.22.14-.37.23-.52.32.21.16.4.33.64.46.04.02.43-.2.42-.22-.15-.19-.35-.37-.54-.56Z"/>
      <path class="cls-26" d="m546.64,1183.92c11.91-15.31,39.23-25.77,47.32-43.46,4.44-9.71,4.47-20.18,8.42-29.99,3.6-8.96,10.39-17.13,18.35-24.55,5.33-4.96,11.67-9.84,20.12-11.66,15.85-3.4,31.47,4.94,47.44,8.15,19.01,3.82,40.75-.26,54.49-10.23-2.04,7.18-10.27,12.99-19.92,15.67-9.65,2.68-20.52,2.56-30.68,1-14.79-2.27-29.65-7.47-44.32-4.92-17.63,3.07-27.72,16.22-31.94,28.69-4.22,12.46-4.92,25.81-13.63,37.04-10.7,13.8-32.18,22.55-40.92,37.02-7.32,12.12-6.24,25.32-15.74,36.95-9.09,11.13-23.84,20.96-22.35,34.9.18,1.7,1.48,3.46,4.66,4.32,10.98,2.99,24.65,3.04,33.25,9.25,8.28,5.98,6.53,14.34,11.26,21.4,5.42,8.09,14.7,7.78,24.59,10.56,1.88.53,3.28,1.64,4.61,2.72,16.03,13.01,17.72,26.96,26.86,42.35,14.36,24.17,39.35,55.32,83.02,55.04,11.02-.07,21.56-4.39,31.35-7.45,23.03-7.19,49.22-9.29,74.01-5.94,8.35,1.13,16.91,2.87,25.21,1.57,5.84-.91,11-3.26,15.84-5.73,42.87-21.87,70.17-55.4,96.19-87.9,1.62-2.03,3.25-4.06,4.8-6.11,3.79-.77,3.88-4.5,3.18-7.24-1.6-6.28-3.21-12.56-4.81-18.84,8.94,5.29,11.23,14.61,8.79,22.63-2.44,8.03-8.78,15.14-14.76,22.17-25.8,30.37-48.05,63.83-87.99,85.27-4.81,2.58-9.96,5-15.82,6.07-9.38,1.71-19.23-.23-28.7-1.71-26.35-4.11-55.42-4.36-78.57,5.32-6.92,2.89-13.4,6.68-21.31,7.75-8.33,1.12-16.8-.97-24.78-3.04-9.32-2.41-21.11-4.73-28.79-9.37-6.94-4.19-11.91-10.95-17.32-16.27-12.71-12.49-24.35-25.58-29.77-40.63-3.88-10.77-6.22-21.74-19-29.39-8.94-5.35-20.72-4.07-29.95-8.12-9.74-4.28-11.29-11.56-13.08-19.01-5.03-20.97-59.01-8.98-43.56-35.03,3.15-5.31,6.77-10.48,10.84-15.46,5.42-6.65,12.92-13.21,16.31-20.58,3.49-7.61.06-14.55,1.54-22.26.76-3.97,2.64-7.58,5.26-10.95Zm-4.63,87.7q-2.27-1.27-4.92-.98c1.83.37,3.37.68,4.92.98Zm406.33,41.24c.68.23,1.03.38,1.41.45.07.01.39-.33.36-.48-.06-.24-.33-.46-.51-.68-.32.18-.63.36-1.25.71Zm-13.17,14.79c.13-.17.27-.34.4-.51-.66-.25-1.32-.5-1.98-.75-.09.1-.17.21-.26.31.61.31,1.22.63,1.84.94Zm-390.99-55.32c-.03.15-.06.29-.09.44.54.05,1.07.1,1.61.15.03-.14.06-.29.09-.43-.53-.05-1.07-.11-1.6-.16Zm168.05,134.7s0,.05,0,.07h1.46s0-.04,0-.06h-1.46Zm-200.39-146.26c-.18.14-.35.29-.53.43.3.12.59.27.91.33.22.04.48-.04,1.06-.11-.7-.32-1.07-.48-1.44-.65Z"/>
    </g>
    <g>
      <path class="cls-30" d="m909.28,1153.98c-.29.53-.52,1.09-.71,1.69,1.38-1.31,3.39-1.93,5.27-1.63-3.63,1.8-6.42,5.22-7.46,9.14,4.15-4.76,8.86-9.03,13.99-12.71-5.82,11.21-12.25,22.1-19.24,32.62-2.15,3.23-4.44,6.51-7.68,8.64-9.53,6.24-22.05.18-31.72-5.84-11.3-7.04-22.61-14.07-33.91-21.11-2.88-1.79-6.21-3.66-9.48-2.77-1.94.53-3.5,1.96-4.7,3.57-6.35,8.51-3.53,20.83-7.7,30.59-4.6,10.77-17.12,16.37-28.82,16.35-21.39-.05-44.36-11.61-65.5-15.82-21.21-4.22-43.93-6.55-64.88.21-14.36,4.63-23.77,17.18-36.93,23.84-23.39,11.84-35.55,13.04-28.33,42.27.22.87.43,1.76.75,2.6,3.88,10.27,9.57,20.87,6.23,32.12-11.67,39.29-63.69,13.18-87.1,31.04-3.59,2.74-5.44,7.16-6.65,11.51-5.35,19.11,1.63,35.52,4.46,54.19,4.71,30.98,23.42,58.32,40.34,83.95,1.17,1.77,2.78,3.27,4.36,4.73,3.09,2.85,5.89,5.87,8.36,9.33,2.08,2.91,4.81,5.56,7.76,7.59,5.71,3.92,10.37,8.57,14.1,14.48,5.95,9.42,13.86,15.84,18.99,26.19,5.56,11.2,9.56,23.18,11.83,35.47,3.92,3.65,6.65,8.57,7.67,13.83-1.33,1.3-2.67,2.6-4,3.89,2.94-2.27,6.91.91,9.22,3.82,3.82,4.83,7.65,9.65,11.47,14.48-8.92-2.67-16.89-8.44-22.22-16.08-1.36-1.95-.94-6.05,1.21-5.05-2.51,1.83-5.75-3.34-3.01-4.8-2.51.5-5.06-2.24-4.38-4.71-3.69-6.19-6.81-12.72-9.31-19.48-2.93-7.95-5.02-16.26-8.92-23.78-8.46-16.33-24.02-27.06-37.46-38.96-14.69-13-22.58-28.11-32.37-44.68-11.41-19.31-29.33-31.9-35.67-54.24-5.85-20.63-10.55-49.21-4.73-70.17,1.84-6.63,5.39-13.01,10.98-17.03,10.81-7.77,26.85-5.98,39.39-5.09,2.22.16,4.48-.44,6.73-.45,7.24-.05,14.34-1.13,21.35-2.88,5.01-1.25,9.64-3.47,13.53-6.78,4.38-3.72,5.62-9.11,4.68-14.44-1.19-6.77-3.58-13.33-4.99-20.07-.57-2.7-2.4-5.11-1.9-8.06.07-.39-.21-.86-.39-1.27-10.39-23.98,4.36-38.47,26.4-45.84,18.08-6.05,29.53-18.73,46.57-25.65,6.89-2.8,14.19-3.62,21.63-3,34.63,2.86,69.73,8.93,104.42,13.99,7.07,1.03,14.83,1.93,20.89-1.85,12.31-7.68,8.34-27.33,16.91-39.04,7.7-10.52,25.92-10.52,33.61,0-5.74-7.84-13.19-16.52-22.88-15.88-10.92.72-17.12,12.68-20.21,23.18-3.09,10.5-6.41,22.71-16.42,27.13-6.09,2.69-13.1,1.64-19.66.54-17.74-2.97-35.48-5.94-53.21-8.91,12.37-4.2,25.83-.63,38.74,1.37,12.91,2,27.89,1.69,36.76-7.9,6.34-6.85,7.89-16.69,11.16-25.43,3.27-8.74,10.32-17.74,19.64-17.19,5.27.31,9.8,3.65,13.99,6.86,9.8,7.5,19.6,15.01,29.4,22.51,8.09,6.19,17.54,12.73,27.54,10.84,14.93-2.82,20.1-21.43,31.38-31.61-3.4,8.63-6.89,17.41-12.78,24.57-5.89,7.16-14.67,12.58-23.93,12.08-13.81-.74-23.54-13.52-35.9-19.75,6.48,7.04,13.09,14.19,21.35,19.02,8.26,4.83,18.57,7.08,27.51,3.66,14.51-5.55,19.93-22.7,28.55-35.63,6.57-9.87,15.83-17.92,26.51-23.07.85,1.74,1.71,3.48,2.56,5.23.23-2.3,2.5-4.2,4.81-4.03,1.6,5.24-5.53,10.59-10.11,7.58.34-1.33.68-2.67,1.02-4-5.97,3.06-10.79,8.3-13.33,14.51,4.47.69,8.89-3.91,8.01-8.35,3.95,5.27-2.27,12.37-8.39,14.81-5.53,2.21-12.35,3.98-15.04,8.96Zm9.37-16.85c1.89,1.22,3.02.38,3.94-1.61-1.81,1.85-1.69-.66-2.71-1.12-.43,1.1-.79,2-1.14,2.91-1.23,1.69-1.59,3.82-2.92,5.46,2.2-2.05,2.63-2.96,2.83-5.64Zm-18.83,35.72c3.38-1.35,3.38-4.83,5.3-6.84-2.97,1.21-3.89,3.98-5.3,6.84Zm-3.79,13.17c-2.87.73-.67,3.37-1.99,3.87q1.43-1.71,1.99-3.87Zm32.27-43.92c.26.16.53.33.79.49,1.09-.47,1.84-1.1.78-3.04-.67,1.09-1.12,1.82-1.57,2.55Zm-342.26,73.46c-.3,1.03-.54,1.83-.77,2.64.4.08.96.37,1.17.21.99-.76.95-1.64-.4-2.85Zm313.84-45.91c-1.5.25-2.54.19-2.24,1.75.05.28.32.52.64,1.03.52-.91.93-1.62,1.6-2.78Zm2.3,9.35c1.31-1.16,2.15-1.9,3.26-2.88-1.97.08-2.84.8-3.26,2.88Zm-316.58,43.56c-1.44,1.31-1.88,2.22-.35,3.78.13-1.39.21-2.33.35-3.78Zm307.08-41.45c.21.16.41.31.62.47l1.74-2.43c-.14-.1-.27-.2-.41-.3-.65.75-1.3,1.51-1.95,2.26Zm28.06-40.99c-.21-.19-.43-.37-.64-.56l-1.02,1.42c.15.12.3.25.46.37.4-.41.8-.82,1.2-1.23Zm-22.17,34.25c-.27-.16-.54-.33-.81-.49-.32.75-.64,1.51-.97,2.26.16.08.32.17.48.25.43-.67.86-1.35,1.29-2.02Zm35.32-49.94c-.08-.24-.16-.47-.23-.71-.58.22-1.15.45-1.73.67.06.18.13.37.19.55.59-.17,1.18-.34,1.77-.52Zm-345.19,98.87c.26-.04.52-.09.78-.13-.14-.63-.28-1.26-.42-1.89-.2.04-.41.07-.61.11.08.63.17,1.27.25,1.9Zm304.64-62.27c.14.21.28.43.41.64.49-.33.98-.65,1.46-.98-.1-.16-.2-.32-.31-.47-.52.27-1.05.54-1.57.81Zm8.45,5.2c.37-.1.74-.2,1.11-.31-.2-.46-.39-.92-.87-2.04-.14,1.32-.19,1.83-.25,2.35Zm-291.48,432.72c.18.38.3.64.42.9.18-.09.48-.14.52-.28.09-.25.03-.56.04-.84-.28.06-.56.13-.98.22Zm9.5,6.54c.07.16.15.32.22.48.45-.22.9-.44,1.34-.66-.06-.13-.13-.26-.19-.39-.46.19-.92.38-1.38.57Zm-47.47-313.64c-.12-.12-.25-.24-.37-.36-.3.32-.59.64-.89.97.11.11.22.22.33.32.31-.31.62-.62.93-.93Z"/>
      <g>
        <path class="cls-30" d="m959.73,1225.44c-.09-.96-.28-1.92-.26-2.87.02-.83.26-1.65-.14-2.75-.45.4-1.1.71-1.3,1.21-.71,1.77-1.86,1.77-3.3,1.05-1.05-.52-2.1-1.04-3.43-1.71.96-.89,1.82-1.68,2.67-2.48-.17-.16-.35-.33-.52-.49-.81.85-1.62,1.69-2.52,2.64-.51-1.91-1.62-.18-2.34-.47-.95-.38-1.74-1.16-2.67-1.82-.39.4-.78,1.05-1.35,1.31-.33.15-1.02-.58-1.43-.46-1.8.52-3.68,1.04-3.88,4.15-.72-1.24-1.01-1.75-1.22-2.1-2.15,1.85-4.29,3.69-6.42,5.53.09.16.19.31.28.47,1.01-.24,2.02-.48,3.03-.72.09.17.18.33.28.5-.88.57-1.8,1.1-2.64,1.73-.88.67-1.77,1.36-2.5,2.17-1.46,1.63-1.36,4.02-3.39,5.68-1.54,1.26-2.78,3.25-4.44,4.67-.5.43-.83,1.08-1.16,1.67-1.78,3.14-5.17,4.33-7.79,6.44-.17.14-.45.37-.58.32-2.77-1.14-4.98,1.19-7.51,1.2-2.45,0-4.89-.39-7.6-.63.17-1.01.27-1.63.4-2.42-.8.26-1.58.52-2.17.71-1.27-.87-2.29-1.74-3.44-2.34-5.73-3.01-11.15-6.54-16.61-10.01-2.02-1.29-4.27-2.27-6.5-3.17-1.72-.7-2.85-2.17-4.98-2.54-3.25-.56-6.11-.88-8.87,1.21-.61.46-1.44.63-2.11.91-1.17,2.7-2.45,5.32-3.43,8.04-1.02,2.85-1.75,5.8-2.62,8.71-.23.76-.35,1.62-.8,2.23-2.36,3.16-3.76,6.95-7.05,9.53-3.39,2.66-7.13,3.76-11.28,4.15-5.11.48-9.78-1.23-14.43-2.79-3.92-1.32-7.68-3.14-11.43-4.92-5.37-2.54-10.55-5.55-16.03-7.8-6.71-2.75-13.6-5.06-20.51-7.28-3.13-1.01-6.47-1.36-9.73-1.96-1.9-.35-3.8-.68-5.72-.86-3.56-.32-7.13-.55-10.7-.76-.8-.05-1.83.82-2.11-.73-.02-.09-.53-.16-.78-.11-2.42.51-4.84,1.75-7.2-.19-.13-.11-.44-.06-.65-.02-7.07,1.53-13.67-.76-20.36-2.46-2.32-.59-4.69-1.09-7.07-1.36-3.26-.37-6.42.28-9.42,1.59-1.11.49-2.1,1.25-3.14,1.91-5.12,3.28-10.24,6.58-15.36,9.86-.29.18-.57.39-.89.51-6.44,2.45-12.88,4.89-19.33,7.34-1.7.64-3.38,1.33-5.09,1.93-1.04.37-2.16.53-3.16.96-1,.43-1.93,1.05-2.84,1.66-.94.62-1.72,1.56-2.74,1.96-2.93,1.15-3.89,3.3-4.4,6.3-.77,4.56-.5,9.08-.32,13.6.14,3.46.87,6.9,1.34,10.35.03.22.18.47.13.66-.82,2.89.23,5.77.03,8.62-.28,4.03-1.03,8.03-1.58,12.05-.06.45-.1.93-.28,1.33-2.81,6.03-6.32,11.57-11.95,15.38-1.84,1.25-4,2.01-5.95,3.11-1.18.67-2.22,1.56-3.33,2.35-1.64,1.17-3.14,2.73-4.96,3.44-3.31,1.3-6.03,3.36-8.86,5.4-2.65,1.91-5.54,3.49-8.38,5.11-5.82,3.3-11.62,6.63-17.56,9.71-2.8,1.45-5.87,2.39-8.85,3.48-5.24,1.91-8.52,5.84-10.94,10.62-.39.76-.43,1.73-.49,2.61-.1,1.68-.18,3.37-.11,5.05.06,1.27.32,2.54.58,3.8,1.07,5.18,1.67,10.43,4.09,15.31,1.92,3.87,1.69,8.29,1.95,12.55.31,5.15-.22,10.23-.74,15.35-.71,7-.48,13.86,2.37,21.29.79,2.05,2.27,3.82,3.37,5.75,1.74,3.05,3.44,6.12,5.15,9.18.42.75.78,1.53,1.25,2.25,2.37,3.58,4.69,7.19,7.16,10.69,2.33,3.31,4.78,6.54,7.23,9.77,2.86,3.79,5.86,7.49,7.76,11.89,1.81,4.2,3.59,8.42,5.34,12.65.26.62.54,1.34.47,1.97-.5,4.87,2.28,8.77,3.85,13,.94,2.53,2.37,4.88,3.55,7.32.48.99.52,1.92-.36,2.81-.58.59-.96,1.38-1.43,2.08l.54.46c.41-.38.82-.77,1.55-1.45-.04,1.26.01,2.15,1.16,2.9,2.55,1.69,2.82,4.83,3.75,7.48.2.58-.22,1.78-.73,2.12-1.86,1.26-1.92,2.88-1.11,4.93-.82-.27-1.31-.43-2.14-.7.21.85.37,1.49.65,2.58-.86-.53-1.52-.76-1.9-1.22-1.06-1.29-.55-2.56.37-3.67.38-.46.96-.75,1.18-1.69-.92.28-1.84.55-3.06.91.08-4.95-3.85-8.17-4.98-12.57-.42-1.64-.89-3.27-1.41-4.88-.35-1.09-.55-2.37-1.25-3.18-3.95-4.52-6.09-10.03-8.42-15.4-.77-1.78-.46-4-.98-5.93-.61-2.27-1.49-4.49-2.44-6.65-.53-1.21-1.47-2.24-2.18-3.38-2.15-3.47-4.74-6.58-7.35-9.72-5.01-6.01-9.69-12.3-14.29-18.63-3.25-4.49-6.17-9.21-9.14-13.9-1.15-1.82-2.03-3.8-3.03-5.71-5.08-9.67-7.43-20-6.86-30.86.35-6.63.1-13.1-1.14-19.62-.47-2.46-.74-5.09-1.81-7.2-1.55-3.05-2.01-6.35-3.19-9.46-2.4-6.31-3.03-13-1.05-19.35,1.44-4.63,4.23-8.92,8.55-11.93,3.88-2.7,7.94-5.03,12.47-6.18,9.79-2.48,18.85-6.81,27.76-11.29,6.61-3.32,13.49-6.04,19.96-9.57,3.43-1.87,6.33-4.72,9.45-7.16,4.85-3.8,6.83-9.22,8.13-14.91.47-2.04.32-4.28.12-6.4-.44-4.62-1.04-9.22-1.67-13.82-.61-4.46-1.53-8.88-1.95-13.35-.32-3.46-.1-6.88.64-10.41,1.2-5.71,4.51-9.7,8.93-12.75,3.02-2.08,6.66-3.35,10.15-4.64,3.62-1.33,7.48-2.03,11.08-3.4,5.93-2.24,11.93-4.37,17.14-8.18,1.97-1.44,4.26-2.46,6.41-3.65.5-.28,1.13-.38,1.52-.76,2.75-2.62,6.45-3.22,9.78-4.53,4.2-1.65,8.6-1.36,12.97-.6,3.64.63,7.43.87,10.84,2.11,1.8.66,3.67.8,5.43,1.46,1.43.54,3.07.56,4.62.76.98.12,1.98.16,2.97.2.96.03,1.92.02,2.88.02.65,0,1.29-.06,1.94-.06,1.31,0,3.24-.53,3.79.12,1.31,1.52,2.23.13,3.3.17,3.37.12,6.78.07,10.11.55,6.59.97,13.28,1.75,19.66,3.56,5.9,1.66,12,2.77,17.61,5.53,3.31,1.63,6.96,2.53,10.43,3.85,6.93,2.63,13.8,5.41,20.75,7.95,4.87,1.78,9.96,2.34,14.98.75,3.83-1.21,6.05-4.37,7.48-7.93,1.87-4.62,3.41-9.37,5.17-14.03,1.27-3.37,2.52-6.76,4.03-10.03,1.16-2.54,2.83-3.28,5.29-2.93,2.3-3.03,6.46-4.34,10.21-3.1,3.84,1.27,7.36,3.07,10.55,5.67,4.36,3.56,8.91,6.92,13.59,10.04,4.94,3.29,9.99,6.55,15.72,8.28,3.32,1,6.81.78,10.02-1.05,1.57-.9,3.32-1.48,4.86-2.43,1.29-.8,3.33-1.07,2.84-3.54-.12-.61.95-1.46,1.49-2.19,1.9-2.56,3.77-5.14,5.72-7.65.61-.78,1.5-1.33,2.19-2.07.42-.45,1.07-1.15.96-1.55-.3-1.09.62-.88.94-1.29,1.44-1.8,3-3.48,3.99-5.7.76-1.71,2.56-2.99,4.01-4.34.63-.59,1.77-.68,2.32-1.31,2.84-3.24,6.58-3.45,10.46-3.51-.05.54-.08.95-.13,1.52,3-1.72,5.03.3,6.77,1.9,3.11,2.87,5.85,6.14,7.16,10.73-.5.69-1.28,1.78-2.07,2.87.04.04.09.09.13.13.85-.76,1.7-1.53,2.55-2.3,2.11,2.7,2.12,2.79.03,5.42,1.27-.16,2.3-.29,3.43-.43.45,1.37.98,2.58,1.23,3.85.25,1.26-.29,2.02-1.74,1.6,0,0,.09.12.09.12-1.17-.2-2.34-.4-3.82-.66-.57,1.16-1.21,2.43-1.84,3.71l-.04-.02Zm-5.09-12.09c-.44.34-.88.69-1.33,1.03.19.17.39.34.58.51.19-.52.38-1.05.56-1.57.88-.47,1.6-1.05,1.31-2.25-.52.68-2.35.65-1.13,2.27Zm-25.37,12.69c1.91-1.92,3.46-3.48,5.01-5.03l-.48-.6c-1.57,1-3.14,2-4.64,2.96.03.74.06,1.45.11,2.67Zm-1.23,2.65c-2.99-.18-1.1-2.13-1.76-4.03-.73,2.31-1.24,3.91-1.75,5.52,1.11-.47,2.1-.89,3.51-1.48Zm15.52-28.72l.74.78c.71-.69,1.43-1.38,2.14-2.07-.18-.19-.36-.39-.54-.58-.78.62-1.56,1.25-2.33,1.87Zm-.6,12.82c-.2-.46-.22-.58-.29-.66-.07-.07-.24-.17-.27-.14-.69.62-1.37,1.26-2.05,1.89.09.1.17.2.26.29.8-.47,1.59-.94,2.34-1.38Zm-7.36,5.1l.63.54c.38-.61.77-1.22,1.15-1.84-.19-.12-.37-.24-.56-.37-.41.55-.81,1.11-1.22,1.66Zm6.27-11.95c-.08-.57-.08-1.01-.24-1.37-.05-.1-.81-.05-.84.04-.1.4-.1.84-.02,1.25.01.07.56.04,1.1.08Zm17.8,4.3c-.13-.06-.25-.12-.38-.19-.32.62-.64,1.24-.97,1.85.16.08.32.15.48.23.29-.63.57-1.26.86-1.89Zm-2.44,6.65c.19-.06.38-.11.57-.17-.15-.53-.3-1.06-.45-1.59-.2.07-.57.18-.56.2.12.52.28,1.04.44,1.55Zm-.59-9.57c-.15.02-.3.05-.45.07,0,.34-.1.71,0,1.02.09.28.39.49.6.74.16-.1.31-.2.47-.3-.21-.51-.42-1.01-.62-1.52Zm-52.41,31.72c.19-.06.37-.11.56-.17-.16-.61-.33-1.21-.49-1.82-.2.06-.41.12-.61.18.18.6.36,1.2.54,1.81Zm34.62-38.17s-.07-.05-.11-.08l-1.01,1.24c.08.05.16.1.24.16.29-.44.58-.88.88-1.32Z"/>
        <path class="cls-30" d="m929.63,1195.2c.88,1.51.33,2.87-.54,4.11-2.67,3.8-5.4,7.55-8.1,11.33-.33.46-.68.92-.92,1.43-1.24,2.59-2.88,4.76-5.26,6.5-1.56,1.14-3.12,2.4-3.9,4.52-.38,1.04-2.24,1.79-3.57,2.18-1.9.56-3.49,1.87-5.73,1.75-1.8-.1-3.5-.94-5.57-.24-1.39.47-3.58-.54-5.06-1.46-2.04-1.26-3.95-2.74-6.31-3.65.13-.53.24-.95.31-1.24-.58.01-1.46.31-1.93,0-4.42-2.98-8.69-6.18-13.16-9.07-2.83-1.83-5.95-3.19-8.89-4.84-2.25-1.26-4.59-2.43-6.57-4.02-1.18-.95-2.18-1.35-3.63-1.38-.63-.01-1.24-.92-1.85-1.42.08-.29.16-.57.25-.86-1.99.32-3.97.68-5.96.96-2.74.38-4.62,1.74-5.36,4.5-.62,2.31-1.31,4.6-1.87,6.92-.79,3.25-2.56,6.23-2.49,9.75.02.88-.97,1.76-1.43,2.68-.45.9-.82,1.84-1.21,2.77-.56,1.32-1.13,2.65-1.67,3.98-.25.61-.48,1.23-.68,1.87-.13.42-.03,1.06-.3,1.27-2.37,1.9-4.66,3.98-7.25,5.54-5.05,3.04-10.43,2.25-15.64.41-7.01-2.48-14.06-4.93-20.86-7.93-3.45-1.52-7.11-2.16-10.52-3.62-2.46-1.05-4.96-2-7.45-2.98-.3-.12-.67-.05-.99-.12-5.74-1.2-11.46-2.46-17.21-3.59-5.5-1.08-11.02-2.01-16.53-3-1.6,1.33-3.21-1.32-4.98.02-.39.29-1.71-.67-3.08-1.26-1.14.31-2.92.79-4.99,1.35-.25-1.3-.45-2.35-.66-3.46-.83.75-1.84,1.66-2.56,2.31-1.93-.11-3.61-.2-5.49-.31-.17-.61-.35-1.24-.53-1.88-.18-.01-.49-.12-.57-.03-.79.88-1.5,1.27-2.89.96-3.17-.7-6.42-.99-9.64-1.45-.22-.03-.52-.03-.65-.17-2.47-2.49-5.38-.75-8.09-.86-.89-.04-1.84.05-2.65-.25-.54-.2-.87-.98-1.1-1.26-1.14.58-2.51,1.46-4,2-2.88,1.04-5.57,2.83-8.85,2.52-.25-.02-.54.36-.82.53-1.92,1.18-3.85,2.35-5.76,3.54-3.07,1.91-6.22,3.7-9.16,5.78-4.23,2.99-8.83,4.98-13.81,6.29-2.74.72-5.33,1.97-8.02,2.86-1.3.43-2.73.43-4.03.86-1.28.43-2.4,1.34-3.69,1.69-1.04.28-2.22.03-3.49.02-.63.63-1.34,1.36-2.16,2.18-.66-.36-1.32-.71-1.52-.82-1.81,1.52-3.5,2.79-5.01,4.25-1.49,1.44-2.82,3.06-4.19,4.63-.12.14-.12.4-.12.61-.15,3.26-.54,6.53-.35,9.77.2,3.42.95,6.8,1.46,10.2.41,2.72.79,5.45,1.26,8.17.23,1.35.62,2.67.95,4,.03.1.14.18.2.28,1.13,1.91-1.31,3.87.46,6.17,1.18,1.54.81,4.36.9,6.61.11,2.89-.07,5.77-2.1,8.17-.34.4-.67,1.03-.62,1.51.43,3.95-1.84,6.54-4.42,8.98-.98.93-2,1.82-2.98,2.75-4.34,4.1-9.42,6.8-15.19,8.34-2.18.58-4.29,1.53-6.34,2.52-1.15.55-2.08,1.25-3.45.5-.35-.19-1.17.45-1.77.71-1.55.67-3.09,1.34-4.64,2.01-3.44,1.47-7.34,1.58-10.58,3.76-1.36.92-3.11,1.33-4.73,1.78-2.71.76-5.49,1.3-8.21,2.05-5.88,1.62-11.74,3.29-17.59,4.99-.73.21-1.4.72-2.02,1.19-5.55,4.21-7.5,9.96-7.3,16.72.24,7.88,1.75,15.54,3.65,23.16,1.54,6.16,3.03,12.33,3.45,18.71.42,6.41,1.06,12.81,1.57,19.21.39,4.91,2.08,9.5,3.7,14.06,2.3,6.48,4.75,12.92,7.59,19.18,1.52,3.34,3.9,6.3,6.04,9.33,2.62,3.69,5.48,7.21,8.08,10.91,4.3,6.11,9.12,11.78,14.03,17.41,3.46,3.97,6.44,8.37,9.52,12.66.52.72.69,1.87.64,2.8-.12,2.02.35,3.77,1.42,5.48.78,1.24,1.22,2.68,1.93,3.97,2.02,3.67,4.16,7.27,6.13,10.96.78,1.46,1.18,3.13,1.87,4.65.57,1.26,1.32,2.45,2.05,3.78-.92.32-1.48.52-2.63.92,1.5.96,2.81,1.43,3.51,2.37.67.89.49,2.39,1.05,3.41,1.69,3.04,1.76,3-.14,5.99.93.09,1.75.17,3,.29-.84,1.03-1.43,1.75-1.87,2.31.91.6,1.98.92,2.32,1.59,2.33,4.66,2.28,4.68,1.18,6.95.66.36,1.33.72,2.05,1.11-.1.97-.2,1.85-.3,2.86,2.69,1.99,4.05,4.49,2.14,7.98,2.41.76,3.19,2.34,3.05,4.61-.01.23-.76,1.28.4,1.58.45.12.96.66,1.11,1.12.93,2.84,1.69,5.74,2.68,8.56.38,1.1.99,2.55,1.88,2.94,1.84.81.55,2.49,1.38,3.45-1.58,1.57,1.33,2.52.56,3.98.57.26,1.14.51,1.71.77l-.03-.1c-.34.68-.68,1.36-1.11,2.2-.77-.42-1.46-.62-1.9-1.07-2.41-2.47-5.48-4.65-6.9-7.61-1.31-2.73-3.56-5.1-3.98-8.28-.21-1.55-.65-3.06-.98-4.59-.05-.21-.02-.53-.14-.61-2.76-1.77-2.35-5.02-3.49-7.53-1.11-2.44-1.91-5.03-2.81-7.57-1.27-3.58-2.56-7.14-3.73-10.75-.63-1.92-1.25-3.9-1.47-5.89-.49-4.47-2.72-8.32-4.15-12.45-.81-2.34-1.9-4.63-3.18-6.75-3.39-5.6-6.99-11.07-10.44-16.63-1.46-2.35-2.99-4.56-3.59-7.5-.49-2.42-2.24-4.72-3.86-6.73-1.84-2.28-4.22-4.12-6.26-6.25-2.89-3.01-5.83-6-8.51-9.2-3.13-3.74-5.86-7.81-9.02-11.52-3.33-3.91-6.08-8.16-8.58-12.63-3.83-6.84-7.31-13.82-10.13-21.13-1.68-4.34-3.16-8.76-5.1-12.99-1.91-4.17-3.1-8.5-3.85-12.96-.83-5.01-1.23-10.09-2.2-15.07-1.04-5.34-2.56-10.58-3.82-15.87-2.02-8.5-4.15-16.98-4.4-25.79-.15-5.37.88-10.64,3.67-15.05,3.71-5.86,8.5-10.91,15.72-12.69.66-.16,1.27-.47,1.91-.71,4.85-1.79,9.85-2.78,15.02-3.16,3.68-.27,7.32-1.21,11.01-1.44,2.29-.14,4.31-.93,6.44-1.49.66-.17,1.39-.54,1.98-.4,2.73.67,4.99-.94,7.46-1.44,2.43-.49,4.81-1.23,7.16-2.04,4.06-1.39,8.24-2.58,12.07-4.47,4.54-2.24,9.4-4.67,11.92-9.2,2.51-4.52,3.65-9.7,2.69-15.09-.63-3.51-.95-7.08-1.54-10.6-.33-2-.79-4-1.45-5.91-2-5.89-3.53-11.86-3.85-18.1-.33-6.28.09-12.17,4.5-17.43,2.6-3.1,5.18-5.57,9.11-6.61,1.16-.31,2.14-1.29,3.29-1.72,1.94-.73,3.96-1.28,6.57-2.1-.07.1.31-.46.75-1.1.51.11,1.05.41,1.51.31,2.34-.48,4.63-1.24,6.98-1.58,5.64-.82,10.11-4.25,14.95-6.74,5.33-2.74,10.23-6.29,15.35-9.43,5.73-3.51,11.99-5.78,18.64-6.12,4.26-.22,8.59.86,12.88,1.43,1.54.21,3.06.62,4.59.95,4.55.97,9.24,1.2,13.63,3.04,1.48.62,3.47-.02,5.03.51,2.55.85,5.03.5,7.57.48,1.65-.01,3.3.69,4.97.9,4.6.58,9.23.94,13.81,1.66,3.55.56,7.05,1.51,10.56,2.34,4.97,1.17,9.98,2.21,14.88,3.65,4.21,1.24,8.28,2.96,12.41,4.47,6.83,2.5,13.91,3.98,21.09,4.89,3.68.47,7.42.49,11.13.55,6.84.11,9.54-4.9,11.1-10.53,1.36-4.91,2.26-9.94,3.49-14.89,1.25-5.02,3.37-9.6,6.85-13.54,4.26-4.82,10.37-5.9,15.87-2.27,1.74,1.15,4.55,1.37,4.9,4.23,4.74.97,6.49,5.79,10.29,7.99,3.51,2.03,7.03,4.06,10.4,6.3,5.35,3.56,10.7,7.03,16.51,9.86,4.71,2.3,9.54,2.76,14.56,2.37.88-.07,1.77-.93,2.52-1.58,1.95-1.72,3.86-3.49,5.71-5.32,1.04-1.04,1.91-2.25,2.87-3.37.88-1.03,1.61-2.36,2.72-2.98,2.03-1.13,3.37-2.34,2.18-4.85,1.86-.76,3.33-1.29,3.04-3.67-.13-1.07,1.24-2.31,1.93-3.47.85.02,2,1.11,2.75-1.26-1.28.65-2.01,1.02-2.74,1.38.52-3.61,2.8-5.7,6.26-7.08-.05-1-.1-2.11-.17-3.45,2.76-2.17,5.73-4.39,8.55-6.78.74-.63,1.02-1.79,1.63-2.93.37.2.92.49,1.62.86.38-.78.76-1.57,1.31-2.7,1.01.51,1.97.99,2.93,1.46,0,0-.13-.13-.13-.13-.44.79-.88,1.59-1.5,2.72,1,.01,1.52.02,2.04.02l-.03-.13c-.13.53-.26,1.07-.47,1.93.86-.07,1.47-.11,2.3-.18,0,.47.11,1.02,0,1.5-.46,1.95-1.86.87-3.17.54.34,3.43-1.25,6.01-2.33,8.79-.83,2.12-2.29,2.92-4.19,3.45l.13-.02c-1.27-1.63,1.01-2.51.76-4.39-.9.5-1.68.95-2.48,1.37-.56.29-1.12.69-1.71.78-2.44.37-4.49,2.26-3.96,4.61.34,1.49-.18,1.77-1.06,1.98-2.13.52-3.41,2.08-4.77,3.55-.22-.8-.45-1.59-.87-3.1-.25,1.7-.4,2.64-.6,4.02.76-.54,1.12-.8,1.47-1.05-.25.78-.5,1.55-.75,2.33.13.09.25.18.38.27.73-.9,1.46-1.81,2.2-2.7.63-.77,1.36-1.12,2.27-.44,0,0,.01.16.01.16-.41,1.37-.82,2.75-1.25,4.19,2.34.09,1.36-2.44,2.67-3.05h-.13Zm-16.91,14.58c-2.04-1.26-1.56.73-2.36,2.02,1.08-.98,1.71-1.56,2.35-2.14.56.3,1.12.6,1.64.88,3.49-4.01,3.6-4.54,1.47-7.71-.95,1.37-1.83,2.65-2.71,3.92l.39.25c.81-.51,1.63-1.03,2.44-1.54.12.17.23.33.35.5-1.19,1.28-2.38,2.55-3.56,3.82Zm24.28-31.47c-.25-.57-.51-1.14-.69-1.55,1.46-.74,2.68-1.47,3.98-1.99,1.34-.54,2.93-.77,1.83-3.11-.79.83-1.46,1.53-2.13,2.23-1.27-.36-2.54-.47-3.33.09-1.23.86-2.14,2.18-3.24,3.37,1.22.33,2.41.64,3.58.96-.97.56-2.03,1.03-2.9,1.71-.8.63-1.62,1.43-.9,2.95,1.4-1.72,2.6-3.19,3.8-4.67Zm-11.82,18.71c-2.88,1.43-5.87,2.57-4.59,6.96,3.37-1.15,4.04-3.92,4.59-6.96Zm-4.07,10.84c.66-.91,1.32-1.82,2.16-2.98-2.28-.08-2.32,1.32-2.16,2.98Zm17.95-28.64q.41,2.22,2.13,1.74l-2.13-1.74Zm-31.07,30.99c-.34,0-.69-.02-1.03-.03.06.91.13,1.82.19,2.74.23,0,.46,0,.69,0,.05-.91.1-1.81.15-2.72Zm-5.46,5.78c2.11.56,1.94-.54,1.89-1.5,0-.11-.29-.2-.55-.37-.36.5-.73,1.01-1.34,1.86Zm6.51,3.96l-.51-.45c-.35.49-.7.97-1.05,1.46.15.12.3.24.45.36.37-.45.74-.91,1.11-1.36Zm4.18-5.67c.46-.63.92-1.26,1.45-2-2.07-.44-1.49,1.04-1.45,2Zm-320.56,330.99c-.22.07-.44.14-.66.21l.55,1.92.75-.23c-.21-.63-.42-1.26-.63-1.89Zm337.73-365.9c.67-.26,1.04-.33,1.04-.42.02-.35-.07-.7-.12-1.05-.24.38-.47.76-.93,1.48Z"/>
      </g>
    </g>
  </g>
  <rect class="cls-37" x="274.85" y="1137.9" width="240.07" height="240.07"/>
  <rect class="cls-24" x="514.92" y="1137.9" width="240.07" height="240.07"/>
  <rect class="cls-24" x="274.85" y="1138" width="240.07" height="240.07"/>
</svg>