<?xml version="1.0" encoding="UTF-8"?>
<svg xmlns="http://www.w3.org/2000/svg" xmlns:xlink="http://www.w3.org/1999/xlink" viewBox="0 0 612 792">
  <defs>
    <style>
      .cls-1 {
        fill: url(#linear-gradient);
      }

      .cls-1, .cls-2 {
        stroke-width: 0px;
      }

      .cls-3 {
        fill: #231f20;
        font-family: Fraunces72ptSuperSoft-SemiBold, 'Fraunces 72pt SuperSoft';
        font-size: 400px;
        font-weight: 600;
      }

      .cls-2 {
        fill: url(#linear-gradient-2);
      }
    </style>
    <linearGradient id="linear-gradient" x1="201.48" y1="217.03" x2="241.87" y2="257.41" gradientUnits="userSpaceOnUse">
      <stop offset="0" stop-color="#211c54"/>
      <stop offset=".44" stop-color="#4f1c51"/>
      <stop offset=".55" stop-color="#552050"/>
      <stop offset=".68" stop-color="#652c4f"/>
      <stop offset=".84" stop-color="#81404d"/>
      <stop offset="1" stop-color="#a65b4b"/>
      <stop offset="1" stop-color="#9d544b"/>
      <stop offset="1" stop-color="#7b3c4d"/>
      <stop offset="1" stop-color="#622a4f"/>
      <stop offset="1" stop-color="#541f50"/>
      <stop offset="1" stop-color="#4f1c51"/>
      <stop offset="1" stop-color="#211c54"/>
      <stop offset="1" stop-color="#a65b4b"/>
      <stop offset="1" stop-color="#a1574b"/>
      <stop offset="1" stop-color="#83424d"/>
      <stop offset="1" stop-color="#6c314e"/>
      <stop offset="1" stop-color="#5b2550"/>
      <stop offset="1" stop-color="#521e50"/>
      <stop offset="1" stop-color="#4f1c51"/>
      <stop offset="1" stop-color="#4f1c51"/>
      <stop offset="1" stop-color="#4f1c51"/>
    </linearGradient>
    <linearGradient id="linear-gradient-2" x1="211.12" y1="279.67" x2="428.7" y2="497.26" xlink:href="#linear-gradient"/>
  </defs>
  <g id="Layer_1" data-name="Layer 1">
    <text class="cls-3" transform="translate(127.14 1022.93)"><tspan x="0" y="0">a</tspan></text>
  </g>
  <g id="Layer_2" data-name="Layer 2">
    <g>
      <path class="cls-1" d="m200.24,256.11c5.36,4.78,12.47,7.17,21.35,7.17s16.16-2.39,21.52-7.17c5.36-4.78,8.04-11.09,8.04-18.93s-2.68-14.11-8.04-18.84c-5.36-4.72-12.53-7.09-21.52-7.09s-15.99,2.36-21.35,7.09c-5.36,4.73-8.04,11.01-8.04,18.84s2.68,14.15,8.04,18.93Z"/>
      <path class="cls-2" d="m420.98,437.85s8.63-23.69,12.22-26.27c2.03-1.46,4.24-2.64,6.56-3.56,2.25-.89,4.74-1.22,6.92-2.16,7.92-3.41,14.95-8.74,21.97-13.68,4.44-3.12,9.48-6.21,13.23-10.19,0,0-26.6-11.25-45.37,21.48,0,0,1.05-11.05,4.01-14.94,2.96-3.88,27.27-38.52-.15-71.25-.43,2.68-1.01,5.35-1.7,7.98-1.05,3.99-3.36,7.45-5.04,11.19-3.54,7.91-4.09,15.98-3.73,24.54.19,4.5.73,8.99,1.73,13.39.51,2.23,1.13,4.44,1.89,6.6,1.13,3.19,3.02,4.81,1.84,8.41-3,9.13-5.27,18.55-8.39,27.67.63-1.83-.22-5.27-.13-7.23.25-5.3,1.14-10.1-.58-15.24-1.07-3.21-2.61-6.26-4.47-9.08-4.92-7.45-12.19-13.07-20.53-16.19-2.68-1-5.46-1.73-8.28-2.25-.06-14.28-4.77-25.55-14.16-33.8-9.45-8.3-23.74-12.44-42.87-12.44-16.71,0-30.77,2.16-42.17,6.48-11.41,4.32-20.02,9.88-25.84,16.68-5.82,6.8-8.73,13.89-8.73,21.26,0,5.76,1.76,10.34,5.27,13.74,3.51,3.4,8.84,5.1,15.99,5.1,7.95,0,14.06-1.84,18.32-5.53,4.26-3.69,6.4-8.99,6.4-15.9v-9.68c0-4.03,1.76-7.32,5.27-9.85,3.51-2.53,8.33-3.8,14.43-3.8,6.91,0,12.36,2.02,16.33,6.05,3.98,4.04,5.96,9.74,5.96,17.11v39c-2.05-.49-4.21-.94-6.57-1.32-5.76-.92-11.75-1.38-17.98-1.38-21.43,0-38.49,4.35-51.16,13.05-6.48,4.45-11.3,9.68-14.46,15.68l-2.78-.89c-2.07-.92-3.66-2.33-4.75-4.24-1.1-1.9-1.64-5.16-1.64-9.77v-113.04c0-3.46-.92-6.25-2.76-8.38-1.84-2.13-4.44-3.2-7.78-3.2-2.54,0-5.22.38-8.04,1.12-2.82.75-6.42,1.99-10.8,3.72l-27.48,10.2c-3.69,1.27-6.31,2.83-7.86,4.67-1.56,1.85-2.33,4.03-2.33,6.57,0,2.19.61,4.01,1.81,5.45,1.21,1.44,2.91,2.68,5.1,3.72l7.43.86c2.19.69,3.83,1.84,4.93,3.46,1.09,1.62,1.64,4.44,1.64,8.47v76.4c0,4.61-.52,7.86-1.56,9.77-1.04,1.9-2.65,3.31-4.84,4.24l-4.84,1.56c-2.31,1.27-4.09,2.74-5.36,4.41-1.27,1.67-1.9,3.78-1.9,6.31,0,3.23,1.01,5.73,3.02,7.52,2.01,1.79,4.81,2.68,8.38,2.68h57.92c.51,10.94,4.82,19.81,12.91,26.61,8.64,7.26,20.22,10.89,34.74,10.89,11.75,0,22.76-2.42,33.01-7.26,7.32-3.45,13.53-7.92,18.67-13.37,1.22,5.27,4.09,9.7,8.64,13.28,6.22,4.9,14.11,7.35,23.68,7.35,6.8,0,12.64-1.3,17.55-3.89,1.92-1.02,3.75-2.19,5.45-3.54,1.98-1.58,3.03-3.56,5.74-4.05,2.57-.47,5.69-.18,8.11.81,8.11,3.31,20.16,1.44,27.35-3.71,7.19-5.15,13.72-8.36,13.72-8.36,0,0-19.46-15.43-45.04-1.27.08-.75.14-1.5.14-2.25,0-1.37-.18-2.76-.69-4.04-.28-.7-.71-1.31-1.2-1.88-.38-.44-1.22-.89-1.29-1.53-.13-1.19,1.31-2.38,2.05-3.13,1.13-1.15,2.19-2.35,3.43-3.38,2.87-2.39,6.36-3.96,10.01-4.69,3.86-.77,7.86-.61,11.69-1.61,5.09-1.32,9.9-4.5,14.24-7.38,7.91-5.26,16.19-11.69,21.34-19.81,0,0-35.76-3.51-55.81,24.98Zm-73.77,13.1c-2.26,1.9-4.74,3.56-7.43,4.96-5.42,2.83-11.24,4.24-17.46,4.24-6.8,0-12.36-1.87-16.68-5.62-4.32-3.74-6.48-9.19-6.48-16.33s2.53-13.16,7.61-17.37c5.07-4.2,11.87-6.31,20.4-6.31,4.49,0,8.67.43,12.53,1.3,2.57.58,5.07,1.33,7.52,2.24v32.9Zm61.54,1.57c-1.42,1.3-3.18,2.82-4.93,3.64-.98.46-2.22.69-3.72.69-2.42,0-4.21-.78-5.36-2.33-1.15-1.56-1.73-3.48-1.73-5.79v-12.09c2.15,1.98,4.79,3.8,8.09,5.29.41.19.83.34,1.23.56.99.52,1.92,1.16,2.75,1.9,1.14,1.01,2.11,2.22,2.82,3.57.31.58.56,1.19.77,1.81.11.33.21.67.29,1.01.07.3.18.61.18.92,0,.33-.17.59-.41.81Zm4.04-6.6s-.62-4.56-1.23-10.74c-.95-9.72-9.5-20.98-18.55-25.34v-37.12c.04.09.09.21.12.29,2.77,7.1,4.62,13.43,8.88,19.9,4.08,6.19,8.86,12.56,14.93,16.93,10.03,7.23,4.63,16.12,3.05,19.45-1.58,3.33-7.21,16.63-7.21,16.63Z"/>
    </g>
  </g>
</svg>