<svg width="299" height="58" viewBox="0 0 299 58" fill="none" xmlns="http://www.w3.org/2000/svg">
<path d="M14.8828 23.8206V48.8968C14.8828 49.9216 15.005 50.6409 15.2493 51.0617C15.4936 51.4824 15.8465 51.7946 16.3012 51.9982L17.3735 52.3443C17.8825 52.6294 18.2761 52.9551 18.5407 53.3216C18.8054 53.6881 18.9411 54.1563 18.9411 54.7196C18.9411 55.439 18.724 55.9955 18.2896 56.3891C17.8553 56.7827 17.2445 56.9863 16.4505 56.9863H3.07429C2.28027 56.9863 1.66269 56.7895 1.21479 56.3891C0.766876 55.9955 0.542921 55.439 0.542921 54.7196C0.542921 54.1563 0.685437 53.6881 0.963684 53.3216C1.24193 52.9551 1.64234 52.6226 2.15132 52.3443L3.22359 51.9982C3.70543 51.7946 4.06512 51.4824 4.29586 51.0617C4.5266 50.6409 4.64197 49.9216 4.64197 48.8968V31.9509C4.64197 31.0551 4.51982 30.4307 4.2755 30.071C4.03119 29.7113 3.66472 29.4602 3.18287 29.3041L1.53375 29.1141C1.04512 28.8834 0.671864 28.6119 0.400404 28.2929C0.128944 27.974 0 27.5736 0 27.0849C0 26.5217 0.169663 26.0398 0.515775 25.6258C0.861887 25.2119 1.44553 24.8725 2.25991 24.5875L8.35419 22.3276C9.32467 21.9476 10.1255 21.6693 10.7498 21.5064C11.3742 21.3436 11.9714 21.2553 12.5347 21.2553C13.2744 21.2553 13.8513 21.4929 14.2585 21.9679C14.6656 22.443 14.8692 23.0605 14.8692 23.8274L14.8828 23.8206ZM9.0532 15.765C7.08512 15.765 5.50386 15.2357 4.31622 14.177C3.12858 13.1183 2.53137 11.7203 2.53137 9.97615C2.53137 8.23202 3.12858 6.84757 4.31622 5.79566C5.50386 4.75054 7.08512 4.22119 9.0532 4.22119C11.0213 4.22119 12.6365 4.74375 13.8241 5.79566C15.0118 6.84078 15.609 8.2388 15.609 9.97615C15.609 11.7135 15.0118 13.1115 13.8241 14.177C12.6365 15.2357 11.0417 15.765 9.0532 15.765Z" fill="url(#paint0_linear_267_68)"/>
<path d="M37.312 25.4698C35.7511 25.4698 34.5499 25.8431 33.7084 26.5828C32.8668 27.3225 32.4461 28.2591 32.4461 29.3789C32.4461 30.1729 32.6565 30.8583 33.0772 31.4487C33.498 32.0392 34.1359 32.5617 34.9978 33.0232C35.8529 33.4847 36.9455 33.8919 38.2757 34.2516C41.6757 35.0931 44.4378 36.0704 46.5552 37.1833C48.6794 38.2963 50.2267 39.6265 51.2108 41.1738C52.1948 42.7211 52.6902 44.5399 52.6902 46.6369C52.6902 49.908 51.5433 52.5955 49.2563 54.6925C46.9692 56.7896 43.4877 57.8347 38.805 57.8347C37.4002 57.8347 36.1854 57.699 35.1607 57.4343C34.1359 57.1628 33.2672 56.8982 32.5547 56.6267C31.8421 56.3552 31.2381 56.2263 30.7494 56.2263C30.3151 56.2263 29.9554 56.3688 29.6772 56.6471C29.3989 56.9253 29.1003 57.2035 28.7949 57.4682C28.4895 57.7397 28.0891 57.8686 27.6073 57.8686C27.044 57.8686 26.5418 57.6854 26.0939 57.3121C25.646 56.9389 25.2727 56.2942 24.9606 55.378L23.04 50.356C22.6056 49.1072 22.5038 48.0621 22.7346 47.2342C22.9653 46.4062 23.4472 45.8497 24.1937 45.5647C24.9334 45.2864 25.7003 45.2932 26.4943 45.6054C27.2883 45.9108 27.9738 46.4605 28.5642 47.2545C29.46 48.6322 30.4033 49.7859 31.401 50.7021C32.3986 51.625 33.4708 52.3105 34.6245 52.772C35.7715 53.2334 36.9863 53.4642 38.2689 53.4642C40.1623 53.4642 41.54 53.0502 42.4087 52.2155C43.2773 51.3875 43.7117 50.356 43.7117 49.1276C43.7117 48.2318 43.4606 47.4581 42.9652 46.8066C42.4698 46.1551 41.7029 45.5783 40.6645 45.0828C39.6262 44.5874 38.296 44.1463 36.6605 43.7595C33.7694 43.169 31.3467 42.3682 29.3921 41.3435C27.4376 40.3187 25.9582 39.0225 24.9606 37.448C23.9629 35.8735 23.4675 34.014 23.4675 31.8695C23.4675 29.725 24.0308 27.879 25.1574 26.2503C26.2839 24.6283 27.8448 23.3524 29.8536 22.4363C31.8624 21.5133 34.1902 21.0586 36.8505 21.0586C38.5404 21.0586 39.8977 21.2011 40.936 21.4794C41.9743 21.7644 42.7819 22.0426 43.3724 22.3209C43.9628 22.6059 44.4107 22.7416 44.7161 22.7416C45.1504 22.7416 45.5169 22.5991 45.8087 22.3209C46.1005 22.0426 46.4059 21.7576 46.7113 21.4794C47.0167 21.2011 47.4035 21.0586 47.865 21.0586C48.3469 21.0586 48.788 21.2283 49.168 21.554C49.5549 21.8865 49.8331 22.4634 50.0096 23.2778L51.4687 28.7613C51.7469 29.9625 51.8283 30.9805 51.6994 31.8084C51.5705 32.6364 51.109 33.1589 50.3217 33.3625C49.711 33.5186 49.0595 33.41 48.3876 33.0368C47.7089 32.6635 47.0642 32.0324 46.4534 31.1366C45.3065 29.216 43.9764 27.7976 42.463 26.8611C40.9564 25.9313 39.2394 25.463 37.3256 25.463L37.312 25.4698Z" fill="url(#paint1_linear_267_68)"/>
<path d="M71.4009 2.61281V48.8968C71.4009 49.9962 71.5095 50.7767 71.7267 51.2381C71.9439 51.6996 72.2968 52.0322 72.7786 52.2358L73.8916 52.6565C74.7874 53.1452 75.2353 53.8306 75.2353 54.7264C75.2353 56.233 74.4684 56.9863 72.9347 56.9863H59.5924C58.8255 56.9863 58.2147 56.7895 57.7736 56.3891C57.3257 55.9955 57.1018 55.439 57.1018 54.7196C57.1018 54.1563 57.2375 53.6949 57.5022 53.342C57.7668 52.9891 58.1605 52.6497 58.6694 52.3443L59.7417 51.9982C60.2303 51.7946 60.5832 51.4825 60.814 51.0617C61.0447 50.6409 61.1601 49.9216 61.1601 48.8968V10.7023C61.1601 9.83365 61.0447 9.21608 60.814 8.84282C60.5832 8.46956 60.2235 8.21168 59.7417 8.05559L58.0926 7.8995C57.5836 7.66876 57.19 7.39729 56.9253 7.07833C56.6538 6.75936 56.5249 6.34539 56.5249 5.82961C56.5249 5.26633 56.7014 4.79128 57.061 4.39087C57.4207 3.99725 57.9976 3.64436 58.7848 3.33896L64.9198 1.07905C65.8631 0.71937 66.6504 0.454696 67.2747 0.27146C67.8991 0.0950111 68.4963 0 69.0596 0C69.7993 0 70.3762 0.237528 70.7834 0.705797C71.1906 1.18085 71.3941 1.812 71.3941 2.60602L71.4009 2.61281ZM70.2472 33.1317L68.1027 30.6411L69.8672 28.9512C72.7582 26.1145 75.3846 24.0853 77.7463 22.8705C80.108 21.6557 82.3679 21.0518 84.5125 21.0518C87.58 21.0518 90.0503 22.0494 91.9301 24.0446C93.81 26.0398 94.7465 28.7341 94.7465 32.1341V48.89C94.7465 49.9148 94.8687 50.6341 95.113 51.0549C95.3573 51.4757 95.717 51.7879 96.2056 51.9914L97.244 52.3376C97.7529 52.643 98.1534 52.9755 98.4316 53.3352C98.7098 53.6949 98.8524 54.1563 98.8524 54.7128C98.8524 55.4322 98.6284 55.9887 98.1805 56.3823C97.7326 56.7759 97.115 56.9795 96.321 56.9795H83.0126C81.4789 56.9795 80.712 56.2262 80.712 54.7196C80.712 53.8238 81.1464 53.1384 82.015 52.6497L83.162 52.229C83.6506 52.0254 83.9967 51.6928 84.2139 51.2314C84.431 50.7699 84.5396 49.9894 84.5396 48.89V34.7062C84.5396 32.6635 84.0442 31.1026 83.0669 30.0303C82.0829 28.958 80.7595 28.4219 79.0968 28.4219C77.9703 28.4219 76.7826 28.6866 75.5339 29.2091C74.2784 29.7317 72.989 30.6072 71.6588 31.8355L70.2404 33.1385L70.2472 33.1317Z" fill="url(#paint2_linear_267_68)"/>
<path d="M116.185 24.0854L116.762 32.0256V48.8969C116.762 49.8402 116.918 50.5731 117.244 51.0821C117.563 51.5911 118.079 51.9033 118.798 52.0051L121.56 52.3512C122.273 52.453 122.802 52.7244 123.135 53.1588C123.467 53.5931 123.63 54.1157 123.63 54.7333C123.63 55.4255 123.413 55.9752 122.979 56.3824C122.544 56.7896 121.92 56.9932 121.099 56.9932H105.069C104.302 56.9932 103.691 56.7964 103.23 56.3959C102.768 56.0023 102.538 55.4458 102.538 54.7265C102.538 54.1632 102.68 53.7017 102.958 53.3488C103.237 52.9959 103.637 52.6566 104.146 52.3512L105.218 52.0051C105.7 51.8015 106.06 51.4893 106.29 51.0685C106.521 50.6478 106.637 49.9284 106.637 48.9036V31.9577C106.637 31.0619 106.514 30.4376 106.27 30.0779C106.026 29.7182 105.659 29.4671 105.178 29.311L103.528 29.121C103.04 28.9174 102.666 28.6459 102.395 28.3134C102.124 27.9808 101.995 27.5736 101.995 27.085C101.995 26.5217 102.171 26.0399 102.531 25.6259C102.89 25.2187 103.467 24.8726 104.255 24.5876L110.464 22.287C111.306 21.9544 112.025 21.6965 112.609 21.5201C113.199 21.3436 113.681 21.2486 114.068 21.2486C114.679 21.2486 115.16 21.4522 115.507 21.8594C115.853 22.2666 116.077 23.0131 116.178 24.0854H116.185ZM115.228 37.4684C115.228 33.7901 115.724 30.7362 116.708 28.3066C117.692 25.877 119.008 24.065 120.658 22.8638C122.307 21.6626 124.139 21.0586 126.161 21.0586C128.387 21.0586 130.118 21.744 131.36 23.1081C132.602 24.479 133.219 26.4539 133.219 29.0327C133.219 31.2587 132.778 32.9011 131.896 33.9597C131.014 35.0184 129.86 35.5478 128.428 35.5478C126.996 35.5478 125.829 35.1813 125.076 34.4552C124.322 33.729 123.942 32.711 123.942 31.408V30.0643C123.942 29.2974 123.759 28.7341 123.386 28.3745C123.012 28.0148 122.497 27.8383 121.832 27.8383C120.963 27.8383 120.135 28.1844 119.361 28.8767C118.581 29.5689 117.957 30.5936 117.481 31.9645C117.006 33.3354 116.776 35.0252 116.776 37.0476L115.242 37.4684H115.228Z" fill="url(#paint3_linear_267_68)"/>
<path d="M136.51 49.0461C136.51 45.8022 137.915 43.2097 140.725 41.2823C143.534 39.355 147.321 38.3845 152.072 38.3845C153.45 38.3845 154.78 38.4863 156.062 38.6899C157.338 38.8935 158.411 39.1785 159.286 39.5314L158.329 42.979C157.535 42.6193 156.714 42.3478 155.859 42.1578C155.004 41.9678 154.074 41.8728 153.076 41.8728C151.183 41.8728 149.676 42.341 148.55 43.2708C147.423 44.2073 146.86 45.49 146.86 47.1255C146.86 48.7611 147.342 49.9216 148.299 50.7495C149.256 51.5775 150.491 51.9982 151.997 51.9982C153.375 51.9982 154.671 51.6861 155.872 51.0617C157.074 50.4374 158.085 49.589 158.899 48.51L159.822 51.7336C158.492 53.6745 156.687 55.1811 154.413 56.2602C152.14 57.3324 149.697 57.8686 147.091 57.8686C143.867 57.8686 141.302 57.061 139.381 55.4526C137.467 53.8442 136.504 51.7064 136.504 49.0461H136.51ZM158.404 51.9236V50.7699L157.521 50.3084V30.3289C157.521 28.6934 157.08 27.4311 156.198 26.5353C155.316 25.6394 154.108 25.1915 152.574 25.1915C151.217 25.1915 150.151 25.4766 149.371 26.0331C148.59 26.5963 148.204 27.3225 148.204 28.2183V30.3629C148.204 31.8966 147.729 33.0707 146.785 33.8918C145.842 34.713 144.485 35.1202 142.72 35.1202C141.132 35.1202 139.951 34.7402 139.171 33.9868C138.39 33.2335 138.003 32.2156 138.003 30.9397C138.003 29.3042 138.648 27.7297 139.938 26.2231C141.227 24.7165 143.141 23.4813 145.672 22.5244C148.204 21.5675 151.319 21.0857 155.031 21.0857C159.272 21.0857 162.442 22.0087 164.539 23.8478C166.636 25.6869 167.681 28.2047 167.681 31.4012V49.4601C167.681 49.9691 167.81 50.3966 168.068 50.7427C168.326 51.0889 168.719 51.2585 169.255 51.2585C169.588 51.2585 169.859 51.211 170.077 51.1024C170.294 51.0006 170.477 50.8581 170.633 50.6817C170.762 50.5527 170.904 50.4441 171.054 50.3559C171.21 50.2677 171.386 50.2202 171.59 50.2202C172.051 50.2202 172.411 50.3898 172.662 50.7156C172.92 51.0481 173.049 51.4825 173.049 52.0186C173.049 52.9619 172.75 53.8849 172.146 54.7807C171.549 55.6765 170.701 56.4095 169.615 56.9863C168.529 57.5632 167.233 57.8482 165.72 57.8482C163.595 57.8482 161.844 57.3053 160.467 56.2195C159.089 55.1336 158.397 53.6949 158.397 51.9032L158.404 51.9236Z" fill="url(#paint4_linear_267_68)"/>
<path d="M177.42 26.8882L175.961 26.5828C175.397 26.3249 174.997 25.9992 174.753 25.6056C174.508 25.2119 174.386 24.7301 174.386 24.1668C174.386 23.5017 174.617 22.952 175.078 22.5177C175.54 22.0834 176.151 21.8662 176.918 21.8662H178.607C179.116 21.8662 179.578 21.7101 179.985 21.4047C180.392 21.0993 180.827 20.536 181.288 19.7149L183.514 15.3036C183.996 14.5368 184.552 13.9396 185.184 13.4984C185.808 13.0641 186.432 12.8469 187.043 12.8469C187.756 12.8469 188.339 13.0709 188.787 13.5188C189.235 13.9667 189.459 14.6386 189.459 15.5344V45.6326C189.459 47.1663 189.785 48.3268 190.436 49.1208C191.088 49.9148 192.018 50.3085 193.219 50.3085C193.931 50.3085 194.549 50.1795 195.058 49.9216C195.567 49.6637 196.022 49.3583 196.422 48.9987C196.816 48.639 197.182 48.3336 197.515 48.0757C197.847 47.8178 198.18 47.7092 198.512 47.7296C198.892 47.7296 199.211 47.8993 199.449 48.225C199.693 48.5575 199.788 49.053 199.734 49.718C199.707 51.0957 199.238 52.4055 198.315 53.6271C197.392 54.8554 196.164 55.8462 194.617 56.5996C193.069 57.3529 191.339 57.7329 189.418 57.7329C186.174 57.7329 183.663 56.9049 181.906 55.2423C180.141 53.5796 179.259 51.0278 179.259 47.5735V29.7793C179.259 28.9106 179.116 28.2659 178.838 27.8451C178.553 27.4243 178.085 27.0986 177.42 26.8679V26.8882ZM185.36 27.1597V21.8662H197.399C198.193 21.8662 198.804 22.0359 199.238 22.382C199.673 22.7281 199.89 23.2303 199.89 23.8954C199.89 24.8183 199.483 25.592 198.662 26.2163C197.84 26.8407 196.524 27.1529 194.712 27.1529H185.353L185.36 27.1597Z" fill="url(#paint5_linear_267_68)"/>
<path d="M218.906 49.0461C218.906 45.8022 220.311 43.2097 223.12 41.2823C225.93 39.355 229.717 38.3845 234.467 38.3845C235.845 38.3845 237.175 38.4863 238.458 38.6899C239.733 38.8935 240.806 39.1785 241.681 39.5314L240.724 42.979C239.93 42.6193 239.109 42.3478 238.254 42.1578C237.399 41.9678 236.469 41.8728 235.472 41.8728C233.578 41.8728 232.072 42.341 230.945 43.2708C229.818 44.2073 229.255 45.49 229.255 47.1255C229.255 48.7611 229.737 49.9216 230.694 50.7495C231.651 51.5775 232.886 51.9982 234.393 51.9982C235.77 51.9982 237.066 51.6861 238.268 51.0617C239.469 50.4374 240.48 49.589 241.294 48.51L242.217 51.7336C240.887 53.6745 239.082 55.1811 236.809 56.2602C234.535 57.3324 232.092 57.8686 229.486 57.8686C226.262 57.8686 223.697 57.061 221.776 55.4526C219.863 53.8442 218.899 51.7064 218.899 49.0461H218.906ZM240.799 51.9236V50.7699L239.917 50.3084V30.3289C239.917 28.6934 239.476 27.4311 238.593 26.5353C237.711 25.6394 236.503 25.1915 234.969 25.1915C233.612 25.1915 232.547 25.4766 231.766 26.0331C230.986 26.5963 230.599 27.3225 230.599 28.2183V30.3629C230.599 31.8966 230.124 33.0707 229.18 33.8918C228.237 34.713 226.88 35.1202 225.115 35.1202C223.527 35.1202 222.346 34.7402 221.566 33.9868C220.786 33.2335 220.399 32.2156 220.399 30.9397C220.399 29.3042 221.043 27.7297 222.333 26.2231C223.622 24.7165 225.536 23.4813 228.067 22.5244C230.599 21.5675 233.714 21.0857 237.426 21.0857C241.668 21.0857 244.837 22.0087 246.934 23.8478C249.031 25.6869 250.076 28.2047 250.076 31.4012V49.4601C250.076 49.9691 250.205 50.3966 250.463 50.7427C250.721 51.0889 251.114 51.2585 251.651 51.2585C251.983 51.2585 252.255 51.211 252.472 51.1024C252.689 51.0006 252.872 50.8581 253.028 50.6817C253.157 50.5527 253.3 50.4441 253.449 50.3559C253.605 50.2677 253.782 50.2202 253.985 50.2202C254.447 50.2202 254.806 50.3898 255.057 50.7156C255.315 51.0481 255.444 51.4825 255.444 52.0186C255.444 52.9619 255.146 53.8849 254.542 54.7807C253.944 55.6765 253.096 56.4095 252.01 56.9863C250.924 57.5632 249.628 57.8482 248.115 57.8482C245.991 57.8482 244.24 57.3053 242.862 56.2195C241.484 55.1336 240.792 53.6949 240.792 51.9032L240.799 51.9236Z" fill="url(#paint6_linear_267_68)"/>
<path d="M272.702 2.61281V48.8968C272.702 49.9216 272.825 50.6409 273.069 51.0617C273.313 51.4825 273.666 51.7946 274.121 51.9982L275.193 52.3443C275.702 52.6497 276.102 52.9823 276.381 53.342C276.659 53.7016 276.801 54.1631 276.801 54.7196C276.801 55.439 276.577 55.9955 276.13 56.3891C275.682 56.7827 275.064 56.9863 274.27 56.9863H260.887C260.12 56.9863 259.509 56.7895 259.068 56.3891C258.62 55.9955 258.396 55.439 258.396 54.7196C258.396 54.1563 258.532 53.6949 258.797 53.342C259.061 52.9891 259.455 52.6497 259.964 52.3443L261.036 51.9982C261.525 51.7946 261.878 51.4825 262.109 51.0617C262.339 50.6409 262.455 49.9216 262.455 48.8968V10.7023C262.455 9.83365 262.339 9.21608 262.109 8.84282C261.878 8.46956 261.518 8.21168 261.036 8.05559L259.387 7.8995C258.878 7.66876 258.485 7.39729 258.22 7.07833C257.949 6.75936 257.82 6.34539 257.82 5.82961C257.82 5.26633 257.996 4.79128 258.356 4.39087C258.715 3.99725 259.292 3.64436 260.079 3.33896L266.214 1.07905C267.158 0.71937 267.945 0.454696 268.569 0.27146C269.194 0.0950111 269.791 0 270.354 0C271.094 0 271.671 0.237528 272.078 0.705797C272.485 1.18085 272.689 1.812 272.689 2.60602L272.702 2.61281Z" fill="url(#paint7_linear_267_68)"/>
<path d="M294.942 23.8206V48.8968C294.942 49.9216 295.064 50.6409 295.308 51.0617C295.552 51.4824 295.905 51.7946 296.36 51.9982L297.432 52.3443C297.941 52.6294 298.335 52.9551 298.6 53.3216C298.864 53.6881 299 54.1563 299 54.7196C299 55.439 298.783 55.9955 298.348 56.3891C297.914 56.7827 297.303 56.9863 296.509 56.9863H283.126C282.332 56.9863 281.715 56.7895 281.267 56.3891C280.819 55.9955 280.595 55.439 280.595 54.7196C280.595 54.1563 280.737 53.6881 281.016 53.3216C281.294 52.9551 281.694 52.6226 282.203 52.3443L283.276 51.9982C283.757 51.7946 284.117 51.4824 284.348 51.0617C284.579 50.6409 284.694 49.9216 284.694 48.8968V31.9509C284.694 31.0551 284.572 30.4307 284.328 30.071C284.083 29.7113 283.717 29.4602 283.235 29.3041L281.586 29.1141C281.097 28.8834 280.724 28.6119 280.452 28.2929C280.181 27.974 280.052 27.5736 280.052 27.0849C280.052 26.5217 280.222 26.0398 280.568 25.6258C280.914 25.2119 281.498 24.8725 282.312 24.5875L288.406 22.3276C289.377 21.9476 290.177 21.6693 290.802 21.5064C291.426 21.3436 292.023 21.2553 292.587 21.2553C293.326 21.2553 293.903 21.4929 294.31 21.9679C294.718 22.443 294.921 23.0605 294.921 23.8274L294.942 23.8206ZM289.112 15.765C287.144 15.765 285.563 15.2357 284.375 14.177C283.187 13.1183 282.59 11.7203 282.59 9.97615C282.59 8.23202 283.187 6.84757 284.375 5.79566C285.563 4.75054 287.144 4.22119 289.112 4.22119C291.08 4.22119 292.695 4.74375 293.883 5.79566C295.071 6.84078 295.668 8.2388 295.668 9.97615C295.668 11.7135 295.071 13.1115 293.883 14.177C292.695 15.2357 291.1 15.765 289.112 15.765Z" fill="url(#paint8_linear_267_68)"/>
<defs>
<linearGradient id="paint0_linear_267_68" x1="-4.20764" y1="10.5937" x2="21.2689" y2="54.7264" gradientUnits="userSpaceOnUse">
<stop offset="0.3" stop-color="#4F1C51"/>
<stop offset="0.53" stop-color="#A65B4B"/>
<stop offset="0.54" stop-color="#A1574B"/>
<stop offset="0.61" stop-color="#83424D"/>
<stop offset="0.7" stop-color="#6C314E"/>
<stop offset="0.78" stop-color="#5B2550"/>
<stop offset="0.88" stop-color="#521E50"/>
<stop offset="1" stop-color="#4F1C51"/>
</linearGradient>
<linearGradient id="paint1_linear_267_68" x1="28.2724" y1="23.2846" x2="47.2271" y2="56.1177" gradientUnits="userSpaceOnUse">
<stop offset="0.3" stop-color="#4F1C51"/>
<stop offset="0.53" stop-color="#A65B4B"/>
<stop offset="0.54" stop-color="#A1574B"/>
<stop offset="0.61" stop-color="#83424D"/>
<stop offset="0.7" stop-color="#6C314E"/>
<stop offset="0.78" stop-color="#5B2550"/>
<stop offset="0.88" stop-color="#521E50"/>
<stop offset="1" stop-color="#4F1C51"/>
</linearGradient>
<linearGradient id="paint2_linear_267_68" x1="54.8961" y1="5.49029" x2="87.7768" y2="62.4495" gradientUnits="userSpaceOnUse">
<stop offset="0.3" stop-color="#4F1C51"/>
<stop offset="0.53" stop-color="#A65B4B"/>
<stop offset="0.54" stop-color="#A1574B"/>
<stop offset="0.61" stop-color="#83424D"/>
<stop offset="0.7" stop-color="#6C314E"/>
<stop offset="0.78" stop-color="#5B2550"/>
<stop offset="0.88" stop-color="#521E50"/>
<stop offset="1" stop-color="#4F1C51"/>
</linearGradient>
<linearGradient id="paint3_linear_267_68" x1="107.424" y1="22.6399" x2="125.944" y2="54.7129" gradientUnits="userSpaceOnUse">
<stop offset="0.3" stop-color="#4F1C51"/>
<stop offset="0.53" stop-color="#A65B4B"/>
<stop offset="0.54" stop-color="#A1574B"/>
<stop offset="0.61" stop-color="#83424D"/>
<stop offset="0.7" stop-color="#6C314E"/>
<stop offset="0.78" stop-color="#5B2550"/>
<stop offset="0.88" stop-color="#521E50"/>
<stop offset="1" stop-color="#4F1C51"/>
</linearGradient>
<linearGradient id="paint4_linear_267_68" x1="142.835" y1="23.8682" x2="163.88" y2="60.3253" gradientUnits="userSpaceOnUse">
<stop offset="0.3" stop-color="#4F1C51"/>
<stop offset="0.53" stop-color="#A65B4B"/>
<stop offset="0.54" stop-color="#A1574B"/>
<stop offset="0.61" stop-color="#83424D"/>
<stop offset="0.7" stop-color="#6C314E"/>
<stop offset="0.78" stop-color="#5B2550"/>
<stop offset="0.88" stop-color="#521E50"/>
<stop offset="1" stop-color="#4F1C51"/>
</linearGradient>
<linearGradient id="paint5_linear_267_68" x1="178.173" y1="17.5296" x2="199.225" y2="53.9935" gradientUnits="userSpaceOnUse">
<stop offset="0.3" stop-color="#4F1C51"/>
<stop offset="0.53" stop-color="#A65B4B"/>
<stop offset="0.54" stop-color="#A1574B"/>
<stop offset="0.61" stop-color="#83424D"/>
<stop offset="0.7" stop-color="#6C314E"/>
<stop offset="0.78" stop-color="#5B2550"/>
<stop offset="0.88" stop-color="#521E50"/>
<stop offset="1" stop-color="#4F1C51"/>
</linearGradient>
<linearGradient id="paint6_linear_267_68" x1="225.238" y1="23.8682" x2="246.282" y2="60.3253" gradientUnits="userSpaceOnUse">
<stop offset="0.3" stop-color="#4F1C51"/>
<stop offset="0.53" stop-color="#A65B4B"/>
<stop offset="0.54" stop-color="#A1574B"/>
<stop offset="0.61" stop-color="#83424D"/>
<stop offset="0.7" stop-color="#6C314E"/>
<stop offset="0.78" stop-color="#5B2550"/>
<stop offset="0.88" stop-color="#521E50"/>
<stop offset="1" stop-color="#4F1C51"/>
</linearGradient>
<linearGradient id="paint7_linear_267_68" x1="253.225" y1="7.20727" x2="280.269" y2="54.0545" gradientUnits="userSpaceOnUse">
<stop offset="0.3" stop-color="#4F1C51"/>
<stop offset="0.53" stop-color="#A65B4B"/>
<stop offset="0.54" stop-color="#A1574B"/>
<stop offset="0.61" stop-color="#83424D"/>
<stop offset="0.7" stop-color="#6C314E"/>
<stop offset="0.78" stop-color="#5B2550"/>
<stop offset="0.88" stop-color="#521E50"/>
<stop offset="1" stop-color="#4F1C51"/>
</linearGradient>
<linearGradient id="paint8_linear_267_68" x1="275.844" y1="0.00676876" x2="301.328" y2="54.7264" gradientUnits="userSpaceOnUse">
<stop offset="0.3" stop-color="#4F1C51"/>
<stop offset="0.53" stop-color="#A65B4B"/>
<stop offset="0.54" stop-color="#A1574B"/>
<stop offset="0.61" stop-color="#83424D"/>
<stop offset="0.7" stop-color="#6C314E"/>
<stop offset="0.78" stop-color="#5B2550"/>
<stop offset="0.88" stop-color="#521E50"/>
<stop offset="1" stop-color="#4F1C51"/>
</linearGradient>
</defs>
</svg>
